<?xml version="1.0" encoding="UTF-8"?>
<svg id="Layer_2" data-name="Layer 2" xmlns="http://www.w3.org/2000/svg" viewBox="0 0 801.9 1000">
  <defs>
    <style>
      .cls-1 {
        fill: #898989;
      }

      .cls-2 {
        fill: #282523;
      }
    </style>
  </defs>
  <g id="Layer_1-2" data-name="Layer 1">
    <path id="Shadow" class="cls-1" d="M700.44,712.21c0,84.7-68.66,153.36-153.36,153.36s-153.36-68.66-153.36-153.36,68.66-153.36,153.36-153.36,153.36,68.66,153.36,153.36ZM126.71,456.83c-38.89,0-70.41,25.24-70.41,56.38,0,21.99,15.73,41.03,38.67,50.32,5.19-11.77,9.63-28.54,4.24-45.75,0,0,21.31,11.83,18.11,51.3,3.07.33,6.21.51,9.39.51,16.19,0,31.1-4.39,42.99-11.75.11-12.69-2.44-29.16-13.58-42.51,0,0,18.12,2.07,30.86,27.03,6.43-8.51,10.14-18.49,10.14-29.16,0-31.14-31.52-56.38-70.41-56.38ZM452.8,517.6c32.93-14.05,38.56-58.29,10.5-80.52-16.39-12.99-35.21-24.82-55.67-32.36,30.57-13.52,53.31-40.44,53.59-79.97.67-97.59-8.39-115.7-8.39-115.7,0,0-36.24-90.59-104.18-83.04-67.94,7.55-80.02,46.73-80.02,95.83s-54.35,85.34,0,153.28c11.88,14.85,27.74,25.47,45.27,31.97-6.29,2.86-12.63,6.34-18.99,10.5-121.49,79.59-130.28,293.78-15.02,421.39,92.64,102.56,84.87-35.83,78.25-94.13-4.08-35.96-2.14-72.41,6.6-107.53,11.38-45.72,35.8-97.43,88.05-119.73Z"/>
    <path id="Cat" class="cls-2" d="M747.54,600.63c41.61,45.38,56.56,106.55,41.28,166.13-23.51,91.37-106.12,169.46-193.34,200.18-126.52,43.24-298.26,50.35-417.56-17-63.59-36.03-105.4-96.81-111.58-170.21-3.11-33.22-.19-64.23,12.52-95.22,20.54-49.17,59.7-87.54,101.55-118.9,49.52-36.67,104.24-65.65,159.18-92.52,108.38-53.81,223.36-95.13,324.38-160.88,32.71-22.41,91.9-67.35,74.58-110.56-18.23-43.5-80.41-67.9-124.84-73.21-16.57-2.05-28.34-17.14-26.29-33.7,2.05-16.59,17.19-28.37,33.77-26.28,41.16,5.29,81.12,19.14,115.68,42.73,57.05,38.7,85.34,102.05,48.35,165.26-52.91,88.25-196.42,146.23-286.98,189.28-89.03,40.99-179.11,78.98-260.62,132.98-38.11,26.04-77.16,57.61-98.35,98.5-7.28,14-12.1,29.96-13.37,45.62-.45,4.81-.49,10.67-.5,15.43.32,15.53,2.22,31.7,6.51,46.45,16.99,63.23,76.28,101.49,137.01,118.4,100.14,27.51,212.62,19.29,310.56-14.61,73.61-27.6,142.7-106.58,145.39-186.71.14-4.53-.02-9.04-.41-13.51h0c0-73.65-64.06-158.49-134.58-222.9-2.87-2.62.47-7.15,3.82-5.18,45.06,26.44,86.34,58.93,125.51,93.32,9.71,8.71,19.54,17.42,28.33,27.12ZM485.37,362.41c1.98,2.16,5.54.21,4.79-2.62-5.15-19.48-14.06-65.22-6.95-130.28,6.71-61.39-39.39-139.11-166.73-228.98-1.8-1.27-4.32-.13-4.53,2.07-1.58,16.81-5.25,73.29,12.14,111.08,1.35,2.93,5.72,2.2,6.08-1.01l3.71-33.08c.26-2.28,2.95-3.36,4.71-1.88,13.82,11.65,59.05,51.11,82.53,87.64,26.69,41.52,10.68,138.83,64.25,197.06ZM291.76,109.26c-14.28-10.77-51.61-38.97-67.72-51.66-1.74-1.37-4.31-.29-4.55,1.91-1.32,12.31-3.19,44.13,10.39,60.13,0,0-38.36,14.01-56.02,52.37-16.7,36.27-27.95,62.75-64.13,56.26-3.3-.59-6.22,2.22-5.82,5.55,3.86,32.5,27.67,166.36,157.21,151.74,2.03-.23,2.44-3,.56-3.79-22.42-9.32-90.16-43.06-98.78-113.55,0,0,39.58-12.79,49.93-59.07,9.76-43.62,40.6-87.23,77.77-94.66,2.49-.5,3.2-3.72,1.17-5.24ZM378.86,714.31c21.47-89.29,119.11-142.37,218.08-118.57,29.54,7.1,55.86,20.26,77.67,37.6,2.82,2.24,6.7-.91,5.08-4.13-23.5-46.71-68.05-83.74-124.74-97.37-98.97-23.8-197.43,32.7-219.92,126.2-14.63,60.85,6.52,122.37,50.35,164.48,2.7,2.6,6.96-.52,5.33-3.9-15.5-32.11-20.5-68.4-11.87-104.3ZM310.67,821.96c-33.31-5.4-64.44,11.5-74.4,38.73-.74,2.02.18,4.26,2.09,5.24,16.18,8.3,31.67,13.43,41.87,16.27,36.2,9.94,75.15,14.98,115.75,14.98,7.42,0,14.88-.17,22.37-.52,3.31-.15,5.18-3.84,3.36-6.61-19.62-29.94-80.99-63.21-111.04-68.09ZM109.75,467.28c34.32,0,64.57,14.6,82.38,36.78,1.95,2.42,5.9,1.21,6.11-1.89.11-1.57.16-3.16.16-4.75,0-45.88-44.41-83.08-99.2-83.08S0,451.54,0,497.42c0,11.28,2.68,22.03,7.55,31.83,1.38,2.78,5.44,2.5,6.38-.45,11.34-35.43,49.94-61.52,95.82-61.52Z"/>
  </g>
</svg>