<?xml version="1.0" encoding="UTF-8"?>
<svg id="Layer_2" data-name="Layer 2" xmlns="http://www.w3.org/2000/svg" xmlns:xlink="http://www.w3.org/1999/xlink" viewBox="0 0 762.79 1000">
  <defs>
    <style>
      .cls-1 {
        fill: url(#linear-gradient-2);
      }

      .cls-2 {
        fill: #bda788;
      }

      .cls-3 {
        fill: #fff;
      }

      .cls-4 {
        fill: url(#linear-gradient-4);
      }

      .cls-5 {
        fill: url(#radial-gradient);
      }

      .cls-6 {
        fill: url(#linear-gradient-3);
      }

      .cls-7 {
        fill: url(#linear-gradient-5);
      }

      .cls-8 {
        fill: url(#linear-gradient-7);
      }

      .cls-9 {
        fill: url(#linear-gradient-6);
      }

      .cls-10 {
        fill: url(#linear-gradient);
      }
    </style>
    <linearGradient id="linear-gradient" x1="627.49" y1="988.22" x2="146.62" y2="34.24" gradientUnits="userSpaceOnUse">
      <stop offset="0" stop-color="#413a2f"/>
      <stop offset=".5" stop-color="#d3bb98"/>
      <stop offset="1" stop-color="#fff"/>
    </linearGradient>
    <radialGradient id="radial-gradient" cx="565.78" cy="550.34" fx="471.12" fy="550.34" r="179.59" gradientTransform="translate(0 -467.4) scale(1 1.85)" gradientUnits="userSpaceOnUse">
      <stop offset=".53" stop-color="#413a2f"/>
      <stop offset="1" stop-color="#d3bb98"/>
    </radialGradient>
    <linearGradient id="linear-gradient-2" x1="131.52" y1="455.07" x2="546.79" y2="455.07" gradientUnits="userSpaceOnUse">
      <stop offset="0" stop-color="#d3bb98"/>
      <stop offset="1" stop-color="#413a2f"/>
    </linearGradient>
    <linearGradient id="linear-gradient-3" x1="134.28" y1="174.53" x2="581.03" y2="174.53" xlink:href="#linear-gradient-2"/>
    <linearGradient id="linear-gradient-4" x1="207.13" y1="715.83" x2="540.19" y2="715.83" xlink:href="#linear-gradient-2"/>
    <linearGradient id="linear-gradient-5" x1="568.31" y1="975.25" x2="568.31" y2="756.91" xlink:href="#linear-gradient-2"/>
    <linearGradient id="linear-gradient-6" x1="80.91" y1="541.06" x2="234.79" y2="541.06" xlink:href="#linear-gradient-2"/>
    <linearGradient id="linear-gradient-7" x1="119.99" y1="500.97" x2="199.07" y2="500.97" gradientUnits="userSpaceOnUse">
      <stop offset="0" stop-color="#413a2f"/>
      <stop offset="1" stop-color="#d3bb98"/>
    </linearGradient>
  </defs>
  <g id="Layer_1-2" data-name="Layer 1">
    <path class="cls-10" d="M103.48,137.19c-8.03,1.81-14.35,3.41-18.89,4.62,8.71-10.76,18.05-21.09,28.01-30.99,0,0,0,0,0,0l-7.03,20.33-2.1,6.03ZM651.08,111.71C579.05,39.67,483.27,0,381.39,0c-53.6,0-105.51,10.99-153.18,31.89l24.19,17.03c11.37-1.09,22.85-1.97,34.43-2.59,29.95-8.47,61.54-13.01,94.16-13.05,191.69-.22,348.52,159.01,348.52,350.7v234.62c0,62.56-16.59,121.33-45.61,172.1-53.75,94.11-150.13,160.84-262.64,173.72-13.09,1.51-26.39,2.28-39.87,2.28-95.97,0-183-39.04-246.03-102.07-63.03-63.04-102.07-150.06-102.07-246.03v-237.22c0-47.35,9.54-92.49,26.73-133.66l34.51-9.94-33.63-4.25-.03-59.08C21.24,235.56,0,306.85,0,381.39v237.22c0,101.86,39.67,197.65,111.71,269.68,72.03,72.04,167.81,111.71,269.68,111.71,14.61,0,29.09-.82,43.39-2.43,85.46-9.6,164.6-47.56,226.3-109.28,12.04-12.04,23.17-24.74,33.35-38.01,50.84-66.19,78.36-146.82,78.36-231.67v-237.22c0-101.86-39.67-197.65-111.71-269.68Z"/>
    <path class="cls-3" d="M135.08,135.65c-6.09,1.59-8.94,2.61-8.94,2.61l16.25-47s12.55-4.15,35.41-9.02v-41.45h13.32l55.41,30.62c20.12-2.17,42.76-3.79,67.59-4.32l198.39,28.32,5.89,24.88c-112.78-20.46-225.4-15.44-337.91,6.7-22.19,3.15-36.95,6.45-45.41,8.66ZM563.56,187.82l8.2-18.85-347.4-28.21c-47.64,4.35-84.54,10.87-108.73,16.04-21.52,4.61-32.99,8.14-32.99,8.14v48.17s16.93-5.77,51.65-12c140.1-31.2,283.23-35.36,429.28-13.3ZM654.92,743.16c-5.77,6.53-12.51,15.52-19.63,24.95-9.96,22.66-40.69,57.99-77.14,88-36.46,30-66.23,32.39-66.23,32.39t-.03.01c-17.82,3.44-38.42,2.56-52.43,1.24-6.76-.63-11.74,6.17-9.09,12.41,2.69,6.24,5.02,12.97,7.04,20,1.37,4.74,3.37,20.7,5.42,39.11,1.2,10.83,2.42,22.52,3.53,33.25,24.28-4.15,47.96-10.61,70.78-19.28,26.12-9.94,51.09-22.75,74.5-38.3,5.51-3.65,10.92-7.44,16.23-11.38,2.96-2.2,5.9-4.44,8.8-6.73,6.48-5.08,12.79-10.38,18.96-15.93,5.26-4.71,10.41-9.59,15.44-14.62,2.23-2.21,4.4-4.46,6.57-6.72,1.89-1.97,3.75-3.97,5.6-5.98-.46-15.61-.74-34.26-.91-51.62-.24-25.11-.24-47.51-.08-54.11.23-9.36.77-17.09,1.33-22.97.45-4.79-5.47-7.32-8.67-3.73ZM573.54,390.91c11.92,11.11,22.41,27.14,27.58,35.66,2.18,3.6,2.89,7.85,2.1,11.98-5.6,29.61-4.8,65.48-3.98,82.34.31,6.08-2.82,11.55-7.78,15.04-66.24,46.4-92.01,162.39-89.2,192.69,2.93,31.55,22.15,70.7,60.78,70.7,29.45,0,65.02-56.27,80.2-82.88,2.56-4.51,8.19-12.26,9.15-7.16.23,1.23,1.03,4.95,2.06,4.95.79,0,3.04,5.48,3.49,4.64,47.14-86.53,32.12-166.59,28.92-180.75-.38-1.6-.46-3.28-.32-4.93,7.69-98.41-6.07-107.24-6.07-107.24-2.34-27.45-28.62-56.09-49.08-82.38-14.53-18.68-19.92-43.56-21.83-56.4-.87-5.95-4.67-11.34-10.37-13.29-25.54-8.71-37.28,25.99-42,57.42-5.26,35.06-.6,43.81,16.35,59.59ZM161.98,584.58c5.29,30.45,10.96,59.73,16.96,86.35,0,0,19.97,22.91,102.16,29.9l189.15-27.77c37.71-167.11,48.15-436.31,48.15-436.31-103.39-23.52-236.01-23.85-386.88-9.69-9.79,2.41-14.66,4.05-14.66,4.05,0,0,7.27,81.26,19.99,182.26,5.6-5.42,13.64-8.54,22.46-8.54,15.8,0,34.11,10.84,36.86,34.63,1.36,11.7-.97,22.23-5.35,31.15,4.44,2.15,8.6,5.26,12.06,9.12,8.71,9.65,12.61,23.2,11.04,38.13-2.73,25.81-25.53,53.13-51.93,66.73ZM115.95,422.28c2.66-4.79.91-11.97.91-11.97l-5.2-48.09s-5.85-4.8-15.81-3.61c-11.25,1.36-24.65,5.71-30.86,18.1-11.69,23.4,27.19,37.37,37.77,49.08,5.6,6.21,10.14,1.91,13.19-3.51ZM123.28,500c10.46-7.45,19.32-15.07,27.4-17.69,11.82-3.82,29.46-16.04,26.68-40.01-.47-4.05,2.15-8.54.59-11.36-7.67-13.84-26.18-13.39-31.96-5.02-6.95,10.08-31.89,40.65-31.89,40.65-6.15,12.38-6.53,25.79-5.72,34.95.4,4.4,5.53,6.44,8.8,3.44,1.95-1.82,3.99-3.46,6.11-4.97ZM477.1,874.28c19.29-3,28.58-14.7,43.31-26.49,25.52-20.41-15.76-67.94-41.44-82.47-25.68-14.53-70.79-29.27-134.76-21.52,0,0-51.27-26.17-134.14-19.87l11.92-12.07s-37.58.46-58.91-30.56c0,0-2.97-1.19-12.39,5.15-4.66,3.12-11.27,5.85-20.56,6.97,0,0,37.78,20.83,46.51,32.94,0,0,.49,12.6,12.61,17.45,12.1,4.84,34.89,24.22,64.43,42.15,29.58,17.92,68.33,35.38,91.1,59.11,16.77,17.48,78.61,37.57,132.32,29.22ZM131.64,578.08c5.19-.29,10.51-1.54,15.8-3.52h.04c24.95-9.32,44.3-35.27,46.75-58.38,1.25-11.78,2.55-20.33-2.32-25.94-7.34-8.45-18.24-10.05-22.64-5.25-7.29,7.99-36.48,26.75-42.37,32.65-5.92,5.92-10.93,13.2-12.65,29.88-1.17,11.22,4.94,21.16,9.08,26.49,2,2.57,5.04,4.26,8.31,4.07ZM149.1,652.03c1.52-1.38,2.21-3.46,3.47-5.45l-3.33-43.38-1.1-6.12c-2.2-.54-4.66-.76-7.4-.6-26.21,1.46-25.57,51.98-21.89,79.87.65,4.92,6.85,6.7,10.08,2.93,1.55-1.83,3.3-3.84,5.15-5.94,5.83-6.54,8.67-15.51,15.03-21.3Z"/>
    <path class="cls-5" d="M682.65,544.11c-.52-2.28-.68-4.71-.49-7.23,6.25-79.71-1.87-97.98-3.48-100.78l-2.25-1.43-.32-3.78c-1.79-21.09-20.26-44.17-38.12-66.49-3.11-3.89-6.34-7.91-9.37-11.83-15.56-19.99-21.3-46.17-23.35-59.98-2.79-14.42-17.52-6.59-18.9,25.44-1.4,32.03-10.68,55.71,11.14,56.63,3.59.15,6.38-.36,8.57-1.32-2.15,4.01-4.95,7.27-8.57,8.28-11.61,3.25,40.84-5.11,49.66,48.74,8.82,53.85-33.34,65.08,9.09,105.42,0,0-45.09,14.34-89.75,99.76-20.08,38.41-22.05,81.34-13.2,111.86,8.1,27.92,44.6,34.8,62.16,11.63,11.52-15.2,21.42-31.48,27.76-42.59,2.56-4.51,9.37-3.35,10.33,1.74.23,1.23,1.28,1.91,2.32,1.91.79,0,1.6-.38,2.05-1.22,6.64-12.19,12.05-24.26,16.43-36.03,9.26-34.63,12.98-70.64,12.98-91.6,0-23.88-3.29-40.95-4.69-47.16Z"/>
    <path class="cls-1" d="M546.79,231.1s-24.38,272.71-62.08,439.82c0,0-27.82,31.91-152.87,31.91-19.09,0-35.93-.74-50.73-2.01-15.4-84.61-25.93-360.84-26.04-463.77-55.87-10.13-106.18-10.31-123.54-10,27.53-6.8,93.95-19.74,200.31-19.74,144.17,0,214.96,23.79,214.96,23.79Z"/>
    <path class="cls-6" d="M581.03,164.95v48.17s-80.05-27.27-249.19-27.27c-91.38,0-156.75,7.96-197.56,15.27,27.49-11.11,69.01-27.86,90.07-32.9v-27.45c31.37-2.88,67.38-4.81,107.48-4.81,155.19,0,249.19,29,249.19,29Z"/>
    <path class="cls-4" d="M362.49,716.3s99.84,3.58,127.05,27.5c0,0-6.2-31.69,1.79-59.19,0,0-44.84,31.09-128.84,31.69ZM521.92,557.39l-21.28,93.94c9.99-39.4,39.55-80.93,39.55-80.93-13.78-5.97-18.27-13.01-18.27-13.01ZM486.27,758.34c-25.68-14.53-74.62-31.01-138.58-23.26,0,0-54.75-17.44-137.61-11.14.67-.03,1.29-.06,1.93-.09-17.26,7.82,12.77,33.69,66.55,42.51,35.71,5.86,63.48,3.44,74.78-4.23,6.88-4.67,15.44-5.98,23.42-3.67.08.03.14.04.22.06.15.04.29.09.45.13,14.57,4.24,19.01,22.57,8.3,33.31-6.8,6.81-8.3,16.13-1.51,28.27,18.9,33.76,56.95,51.79,92.88,54.06,19.31-3,37.57-9.67,52.3-21.46,25.52-20.41-17.44-79.96-43.12-94.49Z"/>
    <path class="cls-7" d="M654.36,834.41c-1.28-20.15-2.2-37.73-2.28-43.9-.5-38.77-2.64-40.73-16.8-22.39-.01.01-.03.03-.04.04-17.55,23.26-37.51,49.29-51.69,48.08-23.81-2.05-29.93,0-29.93,15.65s-14.98,38.12-45.44,51.73c-4.9,2.19-10.43,3.78-16.27,4.9t-.03.01c-23.61,7-11.6,8.05,10.17,32.69,3.67,4.16,6.45,11.84,8.67,20.59,2.84,11.15,4.75,24.01,6.43,33.46,26.11-9.94,51.07-22.75,74.5-38.3-3.98-8.86-8.92-20.15-13.26-31.47-8.09-21.13-14.1-42.33-7.82-48.01,4.63-4.2,14.4,15.06,23.79,36.32,4.88,11.05,9.65,22.64,13.53,31.78,2.96-2.2,5.89-4.44,8.8-6.73-2.96-10.14-6.67-22.76-10.1-34.97-6.16-21.93-11.41-42.49-9.73-44.72,3.01-3.98,13.41,11.25,24.06,31.85,5.11,9.91,10.28,21.05,14.72,31.91,5.26-4.71,10.42-9.59,15.45-14.62,2.22-2.21,4.4-4.46,6.57-6.72-1.15-14.53-2.32-31.61-3.29-47.16Z"/>
    <path class="cls-9" d="M114.09,358.59s-8.27-1.17-18.24.03c-23.12,8.77-16.21,38.01-.81,46.14,10.46,5.53,17.11,12.51,20.91,17.53,2.68-4.79,4.17-10.46,4.17-10.46l-6.03-53.24ZM161.62,672.08s-1.51,8.03-10.93,14.37c5.57,6.79,25.17,27.23,58.27,26.66,0,0-39,12.19,1.13,10.83l24.71-14.06s-51.84-6.77-73.17-37.8ZM157.37,648.44l-8.13-45.25c-3.91-.83-7.85-1.2-10.47-.42-3.74,1.11-5.11,5.67-2.6,8.66,2.25,2.7,5.35,5.84,8.83,7.84,7.12,4.08-8.77,17.95-14.88,12.28-6.11-5.65-15.95,46.39,3.96,41.79,5.81-6.54,12.74-13.97,19.1-19.77,1.52-1.38,2.93-3.12,4.19-5.12Z"/>
    <path class="cls-8" d="M177.52,487.3c-5.15.59-7.98,6.26-5.39,10.74,2.34,4.05,5.67,8.87,9.77,12.29,8.39,6.98-15.59,21.48-22.29,12.66-6.71-8.82-39.61,53.31-12.16,51.56h.03c24.95-9.32,48.88-35.2,51.33-58.31,1.25-11.78-2.04-20.41-6.9-26.02-4.14-2.11-9.04-3.55-14.38-2.93ZM153.64,486.02c11.82-3.82,30.23-20.84,27.45-44.81-.47-4.05-1.59-7.45-3.15-10.27-4.31-2.39-9.56-4.1-15.31-3.44-5.15.59-7.98,6.26-5.38,10.74,2.33,4.06,5.67,8.89,9.76,12.29,8.39,6.99-15.58,21.5-22.29,12.68-6.13-8.09-34.2,33.72-21.43,36.8,10.45-7.45,22.28-11.36,30.36-13.98Z"/>
    <path class="cls-2" d="M537.51,138.26s-56.25-20.31-205.67-20.31c-69.22,0-118.44,4.35-151.34,9.04l-.55-.03c38.42-10.92,89.82-22.56,148.87-28.45l-14.69-31.43c5.79-.13,11.69-.19,17.71-.19,115.74,0,189.43,24.36,189.43,24.36l16.25,47ZM203.06,40.79h-11.93l5.74,6.56v31.16c5.79-1.04,12.01-2.09,18.63-3.09,9.53-1.45,19.88-2.82,31.04-4.02l-43.47-30.61Z"/>
  </g>
</svg>