<?xml version="1.0" encoding="UTF-8"?>
<svg id="Layer_2" data-name="Layer 2" xmlns="http://www.w3.org/2000/svg" viewBox="0 0 718.34 1000">
  <defs>
    <style>
      .cls-1 {
        fill: #e5ab7a;
      }

      .cls-2 {
        fill: #38291c;
      }
    </style>
  </defs>
  <g id="Layer_1-2" data-name="Layer 1">
    <path class="cls-1" d="M565.43,433.04l-301.78,169.53L43.08,469.62l314.42-155.56,207.93,118.99ZM453.36,36.8v38.32l23.47,11.62v68.18l-45,22.26v64.05l34.35,19.67v-62.4l45-22.26v-110.82l-57.82-28.62ZM307.99,0v86.22l-45,22.26v136.98l34.35-17v-98.65l45-22.26V0h-34.35ZM139.13,30.36v59.54l-45,22.26v109.32l45,22.26v62.99l34.35-16.98v-67.33l-45-22.26v-66.68l45-22.26V30.36h-34.35Z"/>
    <path class="cls-2" d="M253.35,582.68L0,428.71v389.84l252.64,181.45,344.59-229.27v-381.23l-343.87,193.17ZM34.35,489.78l201.48,122.45v333.41l-201.48-144.71v-311.15ZM562.87,752.33l-292.69,194.74v-334.44l292.69-164.42v304.12ZM565.43,362.69l-301.78,169.53-122.61-74.52,216.41-107.06,34.76,21.12-179.96,89.03,52.09,31.65,231.44-130.02-139.47-79.8L58.03,430.19l-34.76-21.13,334.23-165.36,207.93,118.99ZM718.34,382.7v242.15l-85.47,56.87v-41.26l51.12-34.01v-165.05l-51.12,28.72v-39.4l85.47-48.01Z"/>
  </g>
</svg>