<?xml version="1.0" encoding="UTF-8"?>
<svg id="Layer_2" data-name="Layer 2" xmlns="http://www.w3.org/2000/svg" xmlns:xlink="http://www.w3.org/1999/xlink" viewBox="0 0 136.22 187.47">
  <defs>
    <style>
      .cls-1 {
        fill: url(#linear-gradient-2);
      }

      .cls-2 {
        fill: #fff;
      }

      .cls-3 {
        fill: url(#linear-gradient);
      }
    </style>
    <linearGradient id="linear-gradient" x1="70.63" y1="187.47" x2="70.63" y2="26.66" gradientUnits="userSpaceOnUse">
      <stop offset="0" stop-color="#5e5e5e"/>
      <stop offset="1" stop-color="#fff"/>
    </linearGradient>
    <linearGradient id="linear-gradient-2" x1="80.23" y1="115.92" x2="80.23" y2="22.26" xlink:href="#linear-gradient"/>
  </defs>
  <g id="Layer_2-2" data-name="Layer 2">
    <path class="cls-2" d="M131.71,41.97c-11.52-3.55-22.63-8.75-32.87-15.31-.52,3.94-1.02,7.97-1.49,12.01-.11.97-.22,1.93-.33,2.89,8.59,4.52,17.62,8.2,26.93,10.99.38,25.34,2.46,51.71-.48,76.62-4.56,19.36-25.31,32.38-44.1,42.44-3.62,1.95-7.17,3.78-10.51,5.52-.25.13-.5.26-.75.39-.25-.13-.5-.26-.75-.39-3.34-1.74-6.89-3.57-10.51-5.52-18.79-10.06-39.54-23.08-44.1-42.44-2.94-24.91-.86-51.28-.48-76.62,9.31-2.79,18.34-6.47,26.93-10.99-.11-.96-.22-1.93-.33-2.9-.47-4.03-.97-8.06-1.49-12-10.24,6.56-21.35,11.76-32.87,15.31l-4.51,1.47.87,77.02c.05,19.74,13.06,35.22,28.55,45.65,12.27,8.62,25.46,15.09,38.69,21.36,13.23-6.27,26.42-12.74,38.69-21.36,15.49-10.43,28.5-25.91,28.55-45.65l.87-77.02-4.51-1.47Z"/>
    <path class="cls-3" d="M116.78,72.02c-.13-4.27-.27-8.53-.37-12.76l-.02-1.07-1.01-.35c-5.92-2.05-11.68-4.43-17.27-7.14-.95-.46-2.07.16-2.18,1.21,0,.01,0,.02,0,.03-.06.63.28,1.24.85,1.52,5.37,2.6,10.91,4.91,16.59,6.92.1,3.9.22,7.81.34,11.76.58,18.44,1.18,37.51-.81,55-3.29,12.8-17.76,23.19-31.7,31.18-.64.37-.93,1.13-.69,1.83v.03c.32.89,1.36,1.29,2.19.82,14.46-8.3,29.61-19.25,33.21-33.3,2.06-17.92,1.45-37.1.87-55.69ZM23.35,127.25c-2.02-17.67-1.42-36.7-.84-55.11.12-3.93.24-7.85.34-11.75,5.68-2.01,11.21-4.32,16.59-6.92.58-.28.91-.89.85-1.52,0-.01,0-.02,0-.04-.1-1.05-1.22-1.67-2.18-1.21-5.59,2.71-11.36,5.09-17.28,7.14l-1,.35-.03,1.07c-.1,4.24-.24,8.51-.37,12.79-.58,18.55-1.19,37.74.87,55.66l.04.2c3.56,13.9,18.72,24.81,33.17,33.1.82.47,1.86.07,2.16-.82v-.03c.25-.69-.02-1.45-.65-1.81-13.9-7.98-28.34-18.33-31.68-31.1ZM136.22,43.44l-.87,77.02c-.05,19.74-13.06,35.22-28.55,45.65-12.27,8.62-25.46,15.09-38.69,21.36v-5.54c12.46-5.93,24.57-12.01,35.9-19.97,9.81-6.61,26.29-20.79,26.34-41.56l.83-73.22v-.12l-.94-.31c-11.17-3.45-21.96-8.36-32.1-14.63.23-1.84.46-3.66.7-5.46,10.24,6.56,21.35,11.76,32.87,15.31l4.51,1.47ZM67.36,177.13c-3.34-1.74-6.89-3.57-10.51-5.52-18.79-10.06-39.54-23.08-44.1-42.44-2.94-24.91-.86-51.28-.48-76.62,9.31-2.79,18.34-6.47,26.93-10.99-.11-.96-.22-1.93-.33-2.9-.25-2.19-.52-4.37-.79-6.54-10.14,6.27-20.92,11.18-32.02,14.6l-1.02.34v.12l.83,73.27c.05,20.72,16.53,34.9,26.42,41.57,11.25,7.9,23.36,13.98,35.82,19.91v-4.41c-.25-.13-.5-.26-.75-.39Z"/>
    <path class="cls-2" d="M101.77,118.93v.56c0,2.97-2.41,5.38-5.38,5.38h0c-.77,0-1.46-.29-1.99-.76-1.07-.97-2.47-1.49-3.91-1.39l-16.75,1.24c-3.74.28-7.49.28-11.22,0l-16.75-1.24c-1.44-.11-2.84.42-3.91,1.39-.53.48-1.23.76-1.99.76h0c-2.97,0-5.38-2.41-5.38-5.38v-.57c0-2.97,2.41-5.38,5.38-5.38h.45c.89,0,1.69.39,2.24,1.01.91,1.03,2.3,1.5,3.67,1.49,1.48-.01,3.16-.05,4.92-.12-.14-11.37-.97-40.64-5.3-78.06-.59-5.06-1.24-10.27-1.96-15.6,6.7-4.83,12.94-10.27,18.58-16.22l5.67-6.04,5.67,6.04c5.64,5.95,11.88,11.39,18.58,16.22-.72,5.33-1.37,10.54-1.96,15.6-4.33,37.42-5.16,66.69-5.3,78.06,1.77.07,3.44.11,4.92.12,1.38.01,2.76-.46,3.67-1.49.55-.62,1.34-1.01,2.24-1.01h.45c2.98,0,5.39,2.41,5.39,5.39ZM69.44,159.21h-2.66c-2.6,0-4.71,2.11-4.71,4.71v1.51c0,2.6,2.11,4.71,4.71,4.71h2.66c2.6,0,4.71-2.11,4.71-4.71v-1.51c0-2.6-2.11-4.71-4.71-4.71ZM72.22,127.67h-8.21c-3.12,0-5.56,2.69-5.26,5.79l1.71,17.83c.26,2.71,2.54,4.78,5.26,4.78h4.8c2.73,0,5-2.07,5.26-4.78l1.71-17.83c.3-3.11-2.14-5.79-5.26-5.79Z"/>
    <path class="cls-1" d="M92.36,22.26c-.72,5.33-1.37,10.54-1.96,15.6-4.33,37.42-5.16,66.69-5.3,78.06l-16.99-.61V40.42l24.25-18.16Z"/>
  </g>
</svg>