<?xml version="1.0" encoding="UTF-8"?>
<svg id="Tablet" xmlns="http://www.w3.org/2000/svg" xmlns:xlink="http://www.w3.org/1999/xlink" viewBox="0 0 1366 768">
  <defs>
    <style>
      .cls-1 {
        fill: url(#radial-gradient);
      }

      .cls-2 {
        fill: #441e68;
      }

      .cls-3 {
        fill: #ffad5c;
      }

      .cls-4 {
        fill: #633789;
      }

      .cls-5 {
        fill: url(#linear-gradient);
      }

      .cls-6 {
        fill: #1b0f26;
      }
    </style>
    <radialGradient id="radial-gradient" cx="680.4" cy="707.05" fx="673.67" fy="707.05" r="823.49" gradientTransform="translate(0 534.71) scale(1 .24)" gradientUnits="userSpaceOnUse">
      <stop offset=".13" stop-color="#1b0f26"/>
      <stop offset="1" stop-color="#441e68"/>
    </radialGradient>
    <linearGradient id="linear-gradient" x1="683" y1="751.05" x2="683" y2="616.35" gradientUnits="userSpaceOnUse">
      <stop offset="0" stop-color="#321c42"/>
      <stop offset="1" stop-color="#441e68"/>
    </linearGradient>
  </defs>
  <ellipse class="cls-3" cx="683" cy="756.31" rx="824.41" ry="124.15"/>
  <path class="cls-1" d="M1307.54,662.49l-190.09,70.24H248.55l-190.09-70.24s284.03-105.73,624.54-105.73,624.54,105.73,624.54,105.73Z"/>
  <path class="cls-6" d="M1142.62,692.99l-85.38-13.57-53.44,43.87-63.33-95.57-40.48,67.76c-58.49-11.26-134.22-18.05-216.97-18.05s-158.51,6.8-217,18.06l-40.49-67.77-63.33,95.57-53.44-43.87-85.38,13.57-101.77-30.5,101.77,38.24,28.82,32h112.51s70.68,0,70.68,0l4.03,5.78,49.99-3.86-1.15-1.92h389.47l-1.15,1.92,49.99,3.86,4.03-5.78h70.68s112.51,0,112.51,0l28.82-32,101.77-38.24-101.77,30.5ZM367.78,727.43l29.01-50,20.65,29.58c-20.9,6.13-37.75,13.01-49.66,20.42ZM948.57,707l20.64-29.58,28.99,49.97c-11.91-7.4-28.75-14.27-49.63-20.39Z"/>
  <path class="cls-2" d="M41.85,611.17l16.08,51.32s260.9-105.73,624.54-105.73,622.52,105.73,622.52,105.73l19.17-50.08s-233.09-115-641.15-115S41.85,611.17,41.85,611.17Z"/>
  <path class="cls-2" d="M229.82,686.54l67.72-17.92-34.15,82.35-56.54-4.06,22.97-60.37ZM1022.32,732.73l-54.19-116.38h-16.22l-8.11,8.11,37.55,110.09-297.8-1.81h0s-.56,0-.56,0h-.56s0,0,0,0l-297.8,1.81,37.55-110.09-8.11-8.11h-16.21l-54.19,116.38-12.64,2.24-5.28,21.34h714.49l-5.28-21.34-12.64-2.24ZM1136.18,686.54l-67.72-17.92,34.15,82.35,56.54-4.06-22.97-60.37Z"/>
  <path class="cls-5" d="M297.55,667.81l7.81,11.41-25.72,68.47s-16.18,3.92-16.24,3.29c-.06-.63,34.15-83.17,34.15-83.17ZM364.71,738.51l20.53-9.6,34.51-100.13-3.38-12.42-51.66,122.16ZM1068.45,667.81l-7.81,11.41,25.72,68.47s16.18,3.92,16.24,3.29c.06-.63-34.15-83.17-34.15-83.17ZM946.25,628.77l34.51,100.13,20.53,9.6-51.66-122.16-3.38,12.42Z"/>
  <path class="cls-4" d="M215.87,568.19c26.1-6.81,61.93-14.45,102.88-21.89-73.79,15.71-148.35,36.86-217.22,64.06l-4.92,21.19-2.72-18.25c-2.88,1.13-5.49,2.19-7.86,3.17l-4.21,21.8-2.89-18.79c-6.99,3.05-10.32,4.79-10.32,4.79l-1.2,22.56-8.15-26.76c21.01-9.01,75.15-30.61,156.59-51.87ZM218.55,741.13l68.32-61.01-51.35,15.25-16.97,45.76ZM1150.13,568.19c-26.1-6.81-61.93-14.45-102.88-21.89,73.79,15.71,148.35,36.86,217.22,64.06l4.92,21.19,2.72-18.25c2.88,1.13,5.49,2.19,7.86,3.17l4.21,21.8,2.89-18.79c6.99,3.05,10.32,4.79,10.32,4.79l1.2,22.56,8.15-26.76c-21.01-9.01-75.15-30.61-156.59-51.87ZM1079.14,680.12l68.32,61.01-16.97-45.76-51.35-15.25ZM1016.61,741.13l-51.81-114.31,46.22,114.31H354.98l46.22-114.31-51.81,114.31h-8.57l-3.73,3.86h691.82l-3.73-3.86h-8.57Z"/>
  <path class="cls-6" d="M1330.96,609.16l-5.01-2.42c-.6-.29-61.23-29.28-170.3-57.79-100.47-26.26-264.03-57.56-472.65-57.56s-372.18,31.3-472.65,57.56c-109.07,28.51-169.7,57.5-170.3,57.79l-5.01,2.42,18.23,59.89,156.91,54.07-12.09,30.33,66.26,3.53,16.65-6.82,4.37-11.15h36.37c-4.37,8.11-2.72,16.36-.38,20.78l1.69,3.19h719.9l1.69-3.19c2.34-4.41,3.99-12.66-.38-20.78h36.37l4.37,11.15,16.65,6.82,66.26-3.53-12.09-30.33,156.91-54.07,18.23-59.89ZM276.46,746.19l-8.41.73,24.73-67.21-31,67.15-50.38-2.66,20.18-52.8,63.4-17.74,4.66,10.22-23.17,62.3ZM1034.92,750.98H331.08c-.35-3.17.57-8,7.3-12.47h8.81l52.23-115.23,12.12-1.17-46.85,116.4,49.76-112.82v6.28l-37.49,96.4-12.27,10.14h636.62l-12.27-10.14-37.49-96.4v-6.28l49.76,112.82-46.85-116.4,12.12,1.17,52.23,115.23h8.81c6.73,4.47,7.65,9.3,7.3,12.47ZM1104.22,746.86l-31-67.15,24.73,67.21-8.41-.73-23.17-62.3,4.66-10.22,63.4,17.74,20.18,52.8-50.38,2.66ZM1151.01,711.03l-11.1-27.85-76.03-20.48-6.62,16.74,18.27,46.59h-49.21l-51.67-114.01-30.01-3.07c-1.29,5.72-2.78,12.46-4.15,18.79l36.34,98.79H389.17l36.34-98.79c-1.37-6.33-2.86-13.07-4.15-18.79l-30.01,3.07-51.67,114.01h-49.21l18.27-46.59-6.62-16.74-76.03,20.48-11.1,27.85-136.54-47.05c73.96-28.79,289.48-100.26,604.55-100.26s530.6,71.46,604.55,100.26l-136.54,47.05ZM1093.5,593.38c-129.28-28.31-267.39-42.66-410.5-42.66s-281.23,14.35-410.5,42.66c-103.98,22.77-175.5,48.9-209.57,62.78l-12.18-40.03c16.52-7.36,73.11-31.17,163.33-54.73,99.66-26.01,261.9-57.02,468.92-57.02s369.26,31.01,468.92,57.02c90.23,23.55,146.81,47.36,163.33,54.73l-12.18,40.03c-34.07-13.88-105.59-40.01-209.57-62.78Z"/>
</svg>