<?xml version="1.0" encoding="UTF-8"?>
<svg xmlns="http://www.w3.org/2000/svg" xmlns:xlink="http://www.w3.org/1999/xlink" viewBox="0 0 1366 768">
  <defs>
    <style>
      .cls-1 {
        fill: url(#linear-gradient-2);
      }

      .cls-2 {
        fill: url(#linear-gradient-10);
      }

      .cls-3 {
        fill: url(#linear-gradient-4);
      }

      .cls-4 {
        fill: url(#linear-gradient-3);
      }

      .cls-5 {
        fill: url(#linear-gradient-5);
      }

      .cls-6 {
        fill: #ffe6d6;
      }

      .cls-7 {
        fill: url(#linear-gradient-8);
      }

      .cls-8 {
        fill: #efa594;
      }

      .cls-9 {
        fill: #1e0d09;
      }

      .cls-10 {
        fill: #441e68;
      }

      .cls-11 {
        fill: url(#linear-gradient-7);
      }

      .cls-12 {
        fill: url(#linear-gradient-9);
      }

      .cls-13 {
        fill: url(#linear-gradient-11);
      }

      .cls-14 {
        fill: #ffad5c;
      }

      .cls-15 {
        fill: url(#linear-gradient-6);
      }

      .cls-16 {
        fill: url(#linear-gradient);
      }
    </style>
    <linearGradient id="linear-gradient" x1="723.56" y1="-579.05" x2="723.56" y2="-829.2" gradientTransform="translate(-635.37 706.35) rotate(36.94) scale(.92 1)" gradientUnits="userSpaceOnUse">
      <stop offset="0" stop-color="#ef9543"/>
      <stop offset="1" stop-color="#ffad5c"/>
    </linearGradient>
    <linearGradient id="linear-gradient-2" x1="692.48" y1="-566.99" x2="692.48" y2="-802.27" gradientTransform="translate(-635.37 706.35) rotate(36.94) scale(.92 1)" gradientUnits="userSpaceOnUse">
      <stop offset="0" stop-color="#995b00"/>
      <stop offset="1" stop-color="#000"/>
    </linearGradient>
    <linearGradient id="linear-gradient-3" x1="-1982.18" y1="1291.24" x2="-1982.18" y2="1041.09" gradientTransform="translate(-1110.69 706.35) rotate(143.06) scale(.92 -1)" xlink:href="#linear-gradient"/>
    <linearGradient id="linear-gradient-4" x1="-2013.27" y1="1303.3" x2="-2013.27" y2="1042.15" gradientTransform="translate(-1110.69 706.35) rotate(143.06) scale(.92 -1)" xlink:href="#linear-gradient-2"/>
    <linearGradient id="linear-gradient-5" x1="342.73" y1="526.37" x2="342.73" y2="191.56" gradientUnits="userSpaceOnUse">
      <stop offset="0" stop-color="#aa7157"/>
      <stop offset="1" stop-color="#efa594"/>
    </linearGradient>
    <linearGradient id="linear-gradient-6" x1="372" y1="490.87" x2="372" y2="70.07" gradientUnits="userSpaceOnUse">
      <stop offset="0" stop-color="#441e68"/>
      <stop offset="1" stop-color="#f4b78c"/>
    </linearGradient>
    <linearGradient id="linear-gradient-7" x1="416.35" y1="461.3" x2="480.12" y2="397.53" gradientUnits="userSpaceOnUse">
      <stop offset=".13" stop-color="#1b0f26"/>
      <stop offset="1" stop-color="#441e68"/>
    </linearGradient>
    <linearGradient id="linear-gradient-8" x1="448.17" y1="457.37" x2="448.17" y2="386.51" gradientUnits="userSpaceOnUse">
      <stop offset="0" stop-color="#441e68"/>
      <stop offset=".87" stop-color="#1b0f26"/>
    </linearGradient>
    <linearGradient id="linear-gradient-9" x1="1091.08" y1="577.8" x2="1091.08" y2="265.66" xlink:href="#linear-gradient-5"/>
    <linearGradient id="linear-gradient-10" x1="1261.53" y1="443.97" x2="1261.53" y2="391.44" xlink:href="#linear-gradient-5"/>
    <linearGradient id="linear-gradient-11" x1="1203.41" y1="306.82" x2="1203.41" y2="260.24" xlink:href="#linear-gradient-5"/>
  </defs>
  <g id="Elbow">
    <g>
      <path class="cls-14" d="M299.21,360.55s-81.9,48.94-110.57,101.93c-28.67,52.99-27.36,64.93-12.97,92.08,14.4,27.15,34.87,75.26,63.01,88.27,28.13,13.01,95.41,2.12,115.8-8.5,20.39-10.62,72.58-50.58,69.08-131.45-3.51-80.87-124.36-142.31-124.36-142.31Z"/>
      <path class="cls-16" d="M207.48,604.12s-7.4-28.26,26.79-17.62c0,0-21.08-31.53-2.14-60.07,18.94-28.54,37.31-41.74,66.36-82.53,29.05-40.79,111.59-30.59,92.52,45.15-19.07,75.75,9.25,121.33-60.52,149.72-69.77,28.39-101.21-7.41-101.21-7.41l-21.8-27.24Z"/>
      <path class="cls-6" d="M277.38,380.38s-46.55,19.28-82.02,78.56-31.46,72.02-13.51,104.25c0,0-13.48-39.67,19.46-75.6,32.94-35.93,40.49-17.55,79.97-80.55,39.47-63-3.9-26.66-3.9-26.66Z"/>
      <path class="cls-1" d="M263.99,395.95s-40.37,19.42-69.45,71.76c-29.08,52.34-27.95,59.89,1.87,110.35,29.82,50.46,50.87,69.15,97.09,63.32,46.22-5.84,117.3-15.71,118.31-137.48l9.45-3.08s11.07,45.01-16.52,97.91c-27.59,52.9-71.67,51.22-103.92,58.56-32.25,7.34-66.07,12.78-100.41-46.06-34.34-58.84-51.4-84.5-33.02-122.69,18.38-38.19,56.7-92.9,97.34-109.14l-.74,16.56Z"/>
      <path class="cls-14" d="M1066.79,360.55s81.9,48.94,110.57,101.93c28.67,52.99,27.36,64.93,12.97,92.08s-34.87,75.26-63.01,88.27c-28.13,13.01-95.41,2.12-115.8-8.5-20.39-10.62-72.58-50.58-69.08-131.45,3.51-80.87,124.36-142.31,124.36-142.31Z"/>
      <path class="cls-4" d="M1158.52,604.12s7.4-28.26-26.79-17.62c0,0,21.08-31.53,2.14-60.07-18.94-28.54-37.31-41.74-66.36-82.53-29.05-40.79-111.59-30.59-92.52,45.15,19.07,75.75-9.25,121.33,60.52,149.72s101.21-7.41,101.21-7.41l21.8-27.24Z"/>
      <path class="cls-6" d="M1088.62,380.38s46.55,19.28,82.02,78.56,31.46,72.02,13.51,104.25c0,0,13.48-39.67-19.46-75.6-32.94-35.93-40.49-17.55-79.97-80.55-39.47-63,3.9-26.66,3.9-26.66Z"/>
      <path class="cls-3" d="M1102.01,395.95s40.37,19.42,69.45,71.76c29.08,52.34,27.95,59.89-1.87,110.35-29.82,50.46-50.87,69.15-97.09,63.32-46.22-5.84-122.71-16.1-117.3-168.49l-12.94-6.31s-8.6,79.25,18.99,132.15,71.67,51.22,103.92,58.56c32.25,7.34,66.07,12.78,100.41-46.06,34.34-58.84,51.4-84.5,33.02-122.69-18.38-38.19-56.7-92.9-97.34-109.14l.74,16.56Z"/>
    </g>
  </g>
  <g id="HandPen">
    <path class="cls-8" d="M403.96,268.18c-72.31-39.27-90.87-95.55-158.34-76-67.47,19.55-54.39,49.84-54.39,49.84,0,0-41.8,40.78-54.39,98.19-12.58,57.4-9.4,89.45-8.95,105.54.45,16.08,61.73,62.15,70.91,74.16,9.18,12.01,31.3,16.67,88.62-12.14,0,0,59.39,7.54,78.67-16.89,0,0,85.5,28.85,91.39-9.43,5.89-38.27,79.34-9.61,79.34-62.22,0,0-18.59-11.3-19.28-70.5-.69-59.21-66.78-57.14-84.68-61.27-17.9-4.13-28.91-19.28-28.91-19.28Z"/>
    <path class="cls-5" d="M249.72,453c-27.98-16.06-23.83-38.88-23.83-38.88,6.74,17.89,41.97,38.88,41.97,38.88-15.54-8.51,7.15-35.06,7.15-35.06l17.2-7.43c17.2-7.43,93.55,44.73,61.94,15.19-31.61-29.53-80.25-66.58-80.25-66.58,57.85,31.81,116.24,82.18,116.24,82.18,0-28.5,43.52-41.44,43.52-41.44,0,0-.52-29.55-41.45-61.15-40.93-31.61-94.82-27.46-100-55.44-5.18-27.98-27.89-91.71-27.89-91.71,0,0,106.64,63.73,134.11,97.93,27.46,34.2,59.42,31.84,59.42,31.84-24,19.92,33,90.25,50.95,96.14s26.94,18.65,15.92,28.27c-11.03,9.62-72.2,4.6-70.32,37.95,1.88,33.35-94.29,7.18-94.29,7.18-9.84,22.1-72.66,20.26-72.66,20.26,0,0-36.16,12.56-65.17,15.15-29.02,2.59-66.32-51.56-66.32-51.56,0,0,69.98,47.54,48.19,21.72-21.8-25.82-35.45-55.42-35.45-55.42,79.57,62.92,109.03,28.05,81.05,11.99ZM356.3,414.12l8.88-27.28,13.7-22.82c13.7-22.82-29.99-32.91-60.02-36.39-30.03-3.47-25.53,25.07-37.55,36.39-2.27,2.13,74.99,50.1,74.99,50.1Z"/>
    <path class="cls-10" d="M241.91,69.52s-30.51.62-35.49,27.39l131.37,203.59s49.9,10.5,90.21,77.2c3.77,6.24,15.01,26.24-10.51,57.95l55.41,84.24,78.45,45.22-16.19-80.32L241.91,69.52Z"/>
    <path class="cls-15" d="M533.08,481.86L237.45,70.55c-.32-.45-.92-.62-1.41-.37-5.52,2.77-18.83,14.66-24.76,20.38-.81.78-.11,2.13,1,1.93.09-.02.18-.04.26-.08l19.04-8.55c2.81-1.26,6.12-.28,7.79,2.3l261.64,404.71,32.06-9.01Z"/>
    <path class="cls-11" d="M510.39,488.04l-23.69,13.08-39.42-60.17c8.23-15.31,12.88-41.73-11.34-80.94-41.86-67.77-92.56-60.52-92.56-60.52,0,0,87.42,55.02,90.38,90.19,2.96,35.17-18.48,43.14-18.48,43.14l62.22,89.62,71.11,41.38-38.21-75.79Z"/>
    <path class="cls-7" d="M433.76,386.51l-4,36.58s22.68,44.46,34.69,32.11c12.02-12.34-30.69-68.69-30.69-68.69Z"/>
    <path class="cls-6" d="M521.17,376.22c-11.69-20.26-27.47-10.13-38.95-32.04-4.2-8.01-5.7-14.56-5.92-19.64-.19-4.53-3.41-8.35-7.8-9.48s-10.52-2.98-18.3-5.66c-45.43-15.61-56.14-39.71-56.14-39.71,0,0,68.15,21.63,98,35.33,29.85,13.69,29.11,71.2,29.11,71.2ZM218.22,201.71c-19.24,11.05-26.61,37.66-57.72,81.05-31.11,43.39-25.79,67.95-29.88,122.68-4.09,54.73,15.15,66.85,15.15,66.85-12.28-30.29,13.51-54.23,13.51-54.23,38.89,28.46,26.67-52.35,26.67-52.35,27.9,22.37,47.83,3.82,35.96-25.51s-8.31-64.5-8.31-64.5c0,0,29.74,57.86,50.72,41.62,20.97-16.24,1.39-39.88-16.21-82.46-17.6-42.57,20.64-40.62,20.64-40.62-18.25-10.74-31.28-3.59-50.52,7.46ZM415.28,401.24c7.94-4.19-.95-14.88-9.53-23.15-8.58-8.26-11.44-7.95-26.87,2.22-15.43,10.17-23.67,29.46-23.67,29.46l26.26,20.44c5.28-14.94,25.87-24.79,33.81-28.98ZM451.84,485.21c1.91,11.76-14.94,18.75-25.43,17.16-10.49-1.59-24.16-10.49-20.02-17.48,4.13-6.99,11.31-15.92,10.81-27.52-.5-11.6,12.56-5.85,12.56-5.85,0,0,20.18,21.93,22.09,33.69ZM533.08,409.78s-21.8-7.53-28-8.03c-6.2-.5-21.3-5.64-14.14-25.53,7.15-19.9,28.29,4.74,28.29,4.74l13.85,28.82Z"/>
    <g>
      <path class="cls-9" d="M561.48,559.54l-19.85-75.92-20.7-29.36c21.49-6.34,19.09-27.28,19.09-27.28,0,0,9.1.18-4.98-23.44-14.08-23.62-5.9-21.35-15.44-66.77-9.54-45.42-32.7-44.06-68.87-53.14-36.17-9.08-81.59-44.68-81.59-44.68h0s0,.01,0,.01h-.01s-120.16-170.46-120.16-170.46c-3.25-4.61-8.9-6.85-14.4-5.72-16.19,3.34-26.53,14.64-31.25,21.08-1.83,2.5-2.76,5.43-2.76,8.37,0,2.6.73,5.2,2.18,7.52l52.45,83.62c-14.39,2.08-44.5,8.68-58.78,28.53-6.84,9.51-9.2,18-9.42,25-7.52,8.89-22.08,26.9-36.85,49.65-21.26,32.74-26.79,61.01-25.94,97.91.85,36.9-6.36,67.16.11,78.21,6.46,11.06,58.71,58.51,82.1,72.55,19.51,11.7,72.47-11.05,90.59-18.95,14.22.31,34.6-.86,41.03-.65,13.37.42,25.43-10.3,31.11-16.34,18.04,5.95,31.24,6.52,57.74,7.77,15.34.72,22.79-3.25,26.32-7.93l16.71,26.65.79,1.25,72.56,45.86c2,1.26,4.25,1.89,6.48,1.89,2.51,0,5.02-.79,7.15-2.36,4.05-2.95,5.84-8,4.57-12.85ZM521.17,401.75c-4.49-2.52-10.16-4.28-17.25-4.38-3.6-.05-6.72-2.46-7.66-5.93-2.1-7.8-3.88-20.19,6.09-20.17,4.79,0,8.84,2.88,12.13,6.71,1.64,9.59,4.11,17.49,6.69,23.77ZM454.66,300.89c38.15,4.54,56.77,13.17,57.88,56.77.15,5.79.61,11.15,1.29,16.1-8.38-7-21.62-15.51-25.56-3.39-5.9,18.17,4.09,29.52,7.72,32.25,3.49,2.62,22.05,1.88,34.78,16.3.96,1.24,1.55,1.86,1.55,1.86,0,16.98-9.6,22.92-17.4,24.95l-61.65-87.45-.3-.42c-.12-.17-.22-.32-.35-.5-11.53-16.36,5.21-36.03,5.21-36.03-12,3.86-16.23,11.65-17.35,18.82h0s-46.42-65.85-46.42-65.85c13.65,9.86,36.55,23.73,60.6,26.6ZM348.34,480.89c-23.08-13.28-75.47-27.44-88.66-38.16-13.19-10.72-66.36-68.42-66.36-68.42,0,0,4.25,7.32,10.99,17.61-.96-.35-2.06.19-3.28,1.01l.06.03c3.99,2.19,7.41,5.28,10,9.03,14.45,20.91,35.15,47.12,52.07,53.93,29.27,11.77,58.4,23.41,84.37,34.95,2.38,1.06,4.69,2.04,6.97,2.96-2.97,3.21-7.89,6.95-15.71,9.21-15.8,4.56-93.28,3.04-108.17-10.33-14.89-13.37-65.63-58.94-65.63-58.94,8.81,21.88,47.7,56.82,63.2,68.67,6.89,5.27,24.94,7.89,44.55,9.24-3.58,1.86-38.15,19.08-64.74,5.78-28.07-14.03-34.44-32.32-57.83-48.05-23.39-15.73-15.31-50.34-12.33-71.52,2.98-21.18-5.53-44.15,10.63-78.59,13.6-28.99,34.73-59.49,41.08-68.42,1.7,4.06,3.61,6.32,3.61,6.32,1.13-47.63,50.92-58.84,69.85-61.39l63.95,101.97c-3.54.03-7.06.33-10.55.92,0,0,5.51,1.49,14.23,4.95,5.95,2.36,13.4,5.64,21.62,10,12.92,6.84,27.74,16.35,41.62,29.1,9.67,8.89,17.4,17.52,23.08,25.81,4.46,6.47,7.65,12.72,9.56,18.72,2.7,8.52,2.79,16.52.13,23.85-1.13,3.1-2.75,6.09-4.88,8.95-.49.66-1,1.3-1.54,1.94-1.12,1.33-2.35,2.62-3.69,3.88-2.17,2.04-4.18,3.72-6.05,5.07-11.03,7.99-17.17,4.66-23.89-1.24,1.71-4.07,8.23-15.35,30.39-25.98,4.52-2.17,6.93-7.18,5.25-11-2.07-4.72-9.2-14.68-20.67-23.02-2.35-1.7-5.58-2.19-8.86-1.34-10.42,2.69-30.97,14.3-37.88,37.86-22.72-15.22-57.47-38.36-84.62-54.44-9.54-5.65-55.88-75.01-56.6-76.1.15.42,3.97,10.64,10.73,24.5-1.06-.18-2.33.39-3.7,1.27,4.11,2.51,7.39,6.15,9.68,10.38,11.98,22.2,29.75,48.6,51.24,60.59,40.6,22.66,78.83,45.67,89.99,60.22,11.16,14.54,33.15,18.55,45.67,9.03l4.61,7.35c-2.44-.13-5.03.43-5.98,3.09-1.97,5.54,1.35,14.63-7.96,25.71-7.47,8.9-6.03,13.65,1.46,17.59-20.48-1.75-46.18-6.01-61.01-14.54ZM382.2,425.71c-2.57-2.36-5.36-4.8-8.63-6.95-2.17-1.43-5-3.32-8.36-5.56-3.3-2.21-4.53-6.46-2.95-10.11,3.33-7.71,11.36-20.14,30.09-28.3,2.87-1.25,5.94-.96,7.94.72,4.58,3.85,10.58,10.8,14.46,17.02,1.39,2.24-.08,5.57-3.02,6.81-8.46,3.56-24.1,13.29-29.54,26.37ZM435.94,496.32c-2.51.13-5.99.16-10.15.05-4.45-.12-8.84-1.26-12.66-3.53-2.11-1.25-3.74-2.6-4.14-3.91-1.33-4.43,4.88-5.32,8.42-18.84,3.3-12.58.85-17.62,6.92-17.04l22.85,36.43c-2.05,3.55-5.48,6.53-11.24,6.84ZM426.63,432.24c.57-.71,1.13-1.46,1.69-2.23l16.67,25.29c2.98,4.51,7.93,6.96,12.97,6.96,2.93,0,5.9-.82,8.52-2.55,7.14-4.71,9.12-14.35,4.41-21.49l-32.76-49.67c-1.7-9.23-6.01-19.31-14.15-29.98-23.83-31.25-52.31-53-80.6-59.07L213.77,92.84c-.25-.4-.23-.9.05-1.29,3.61-4.93,11.46-13.58,23.38-16.03.44-.1.89.09,1.15.47l286.35,406.17c-19.61,1.79-32.41,10.57-40.04,18.26-3.68,3.71-6.48,7.46-8.55,10.71l-49.48-78.89ZM446.82,418.06l16.56,25.11c1.97,3,1.14,7.05-1.86,9.02-2.99,1.98-7.04,1.15-9.02-1.85l-16.56-25.11,10.88-7.17ZM436.45,414.12c.9-2.74,1.6-5.64,2.04-8.68l3.37,5.11-5.41,3.57ZM529.75,548.93l-47.7-30.15c4.98-8.99,18.64-27.11,48.04-27.91l12.93,49.44c-6.9.82-10.97,4.95-13.27,8.62Z"/>
      <path class="cls-9" d="M297,327.63c-21.51,4.51-19.07,25.15-19.07,25.15,3.01-13.9,19.07-25.15,19.07-25.15Z"/>
      <path class="cls-9" d="M264.4,435.66c3.01-13.9,19.07-25.15,19.07-25.15-21.51,4.51-19.07,25.15-19.07,25.15Z"/>
    </g>
  </g>
  <g id="Hand">
    <path class="cls-14" d="M1040.3,303.4s-90.41-17.57-120.5,88.59h24.4s30.78-22.52,43.17-32.28c12.39-9.76,52.93-56.31,52.93-56.31Z"/>
    <path class="cls-8" d="M1358.81,418.4c-4.37-10.92-26.77-11.71-55.47-9.94-1.99-5.29-6.08-10.57-9.01-14.91-7.8-11.53-23.66-59.83-59.22-63.44-35.57-3.6-107.22,17.04-107.22,17.04,0,0,3.15-7.29,8.7-16.16,5.21-8.31,12.53-18,21.35-24.39,2.33-1.69,4.77-3.15,7.31-4.29,0,0,32.62,10.87,64.07-2.36,3.55-1.48,7.08-3.28,10.55-5.44,3.85-2.38,7.62-5.21,11.24-8.54,2.04-1.88,3.88-3.71,5.53-5.5h0c27.21-29.54,1.55-45.98-9.89-46.89-12.13-.97-91.34,2.59-112.06,0-20.73-2.6-37.9,12.9-60.16,41.23-22.26,28.33-59.16,55.33-79.56,78.1-20.39,22.78-52.87,39.07-52.87,39.07-47.55,5.08-48.28,1.55-81.02,24-23.82,16.33-45.32,22-54.9,38.06-3.6,6.02-5.51,13.5-5.25,23.55.55,20.74,23.04,29.5,47.45,27.51,18.99-1.55,39.14-9.62,51.03-23.63,0,0,44.63-5.82,72.28,13.1,27.65,18.92,68.61,19.89,68.61,19.89,0,0,2.55,2.41,6.74,5.91,2.85,2.39,6.47,5.27,10.55,8.25,0,.01,0,.01,0,.01,8.3,6.03,18.55,12.42,28.37,15.67,3.73,1.24,7.4,2.03,10.88,2.17,15.46.64,37.29-2.22,59.88-10.18,9.5-3.34,19.14-7.59,28.49-12.87h.01c2.58-1.45,5.14-2.99,7.67-4.6,0,0,27.26,5.02,43.18,27.74,0,0,5.55,28.75,25.22,33.39,19.67,4.64,30.56-4.85,29.11-12.13-1.46-7.28-16.01-47.06-19.89-59.18-3.88-12.13-8.73-24.26-29.59-38.81,0,0,76.16,4.85,89.26-1.46,13.1-6.31,38.32-25.71,28.62-49.97ZM1191.44,412.58s8.46-9.67,31.89-9.2c0,0,2.86,4.69,8.31,10.23-14.31.57-28.08.46-40.2-1.03Z"/>
    <path class="cls-6" d="M1134.33,245.63c-23.24-.58-39.5,24.98-54.61,42.4-15.1,17.43-49.95,61-80.16,80.43-25.37,16.31-11.41,21.81-6.29,23.15-19.29-3.92-36.85,8.63-62.84,11.75-26.72,3.22-30.79,8.41-46.47,10.76-15.69,2.35-15.11,10.43-40.67,25.23-25.56,14.8-16.85,33.42-27.3,35.37-10.46,1.95-15.69-3.7-8.74-17.35l-1.07-3.33c9.58-16.06,31.08-21.73,54.9-38.06,32.74-22.45,33.47-18.92,81.02-24,0,0,32.48-16.29,52.87-39.07,20.4-22.77,57.3-49.77,79.56-78.1,22.26-28.33,39.43-43.83,60.16-41.23,20.72,2.59,99.93-.97,112.06,0,11.44.91,37.1,17.35,9.89,46.88,24.8-45.51-99.07-34.25-122.31-34.83ZM994.8,391.96c-.49-.13-.98-.24-1.47-.33.71.19,1.24.29,1.47.33ZM1211.54,330.39c-44.75,6.04-61.07,10.94-61.07,10.94,0,0,77.1.82,86.07,2.86,8.97,2.04,21.21,16.76,28.15,42.85,6.93,26.09,4.82,21.2,16.32,20.38,11.49-.82,26.66,16.78,20.4,27.33-6.26,10.55,18.77,3.25-4.69-37.74s-40.42-72.65-85.18-66.61ZM1360.55,424.54c-1.89-14.84-6.01-17.17-53.59-14.3v11.85s61.34-13.05,47.47,30.19c0,0,8.01-12.9,6.12-27.74ZM1238.99,470.95l-23.66,1.32s28.96,8.97,37.53,27.74c8.57,18.76,41.89,85.47,15.86,78.32,0,0,10.66,9.79,21.67-8.16,0,0-13.87-39.98-16.73-54.25-2.86-14.28-10.61-33.63-34.67-44.96Z"/>
    <path class="cls-12" d="M1343.33,441.55c-10.06-17.67-60.98,6.59-94.66,3.18-31.69-3.21-65.8-14.74-69.72-16.09-1.44-3.36-3.08-6.62-4.88-9.77,20.47-14.2,49.25-15.5,49.25-15.5l-7.24-29.07s-9.28-5.19-35.89-3.24c-26.61,1.95-54.76-16.68-54.76-16.68l-6.66,5.71c2.76-8.47,9.92-19.11,17.82-29.12,7.52-9.51,15.69-18.45,21.35-24.39,4.32-4.53,7.17-7.33,7.17-7.33,0,0,37.33,10.55,64.21.68,3.76-1.38,7.32-3.17,10.55-5.44,1.87-1.32,3.63-2.8,5.25-4.46,24.33-24.97-34.56-23.05-80.65-24.33-46.09-1.28-26.07,17.64-26.07,17.64,0,0-26.42,23.97-56.57,51.19-30.14,27.23-33.38,76.51-33.38,76.51-44.97-26.85-70.89,14.69-108.02,19.67-37.13,4.97-28.17,28.31-36.49,23.19-8.32-5.12-5.12-17.93-43.53,0-35.23,16.44-29.52,46.35-12.03,51.18,18.99-1.55,39.14-9.62,51.03-23.63,0,0,44.63-5.82,72.28,13.1,27.65,18.92,68.61,19.89,68.61,19.89,0,0,2.55,2.41,6.74,5.91l4.13-.47c1.89,3.2,4.03,6.11,6.42,8.72,0,.01,0,.01,0,.01,7.21,7.88,16.7,13.12,28.37,15.67,18.33,4.02,42.05,1.4,70.76-8.01.44-.14.89-.29,1.34-.44,13.36-4.45,21.9-8.31,27.15-12.43h.01c1.55-1.22,2.8-2.46,3.82-3.74.29.01.58.03.88.03,25.64,0,46.15,26.86,46.15,26.86,0,0,1.88,24.09,23.62,29.68,21.74,5.59,5.19-3.97-2.6-27.01s-14.6-29.86-14.6-29.86c-8.02-22.11-36.59-37.12-50.44-43.27,32.84-7.38,77.26-7.65,111.85-5.15,43.88,3.18,49.47-11.73,39.41-29.4Z"/>
    <path class="cls-2" d="M1228.72,413.93c-6.42-13.97-3.64-31.33,6.03-17.31s19.59,23.93,33.97,23.69c14.37-.24,42.5,8.51,21.67,20.33-20.83,11.82-54.17-10.37-61.67-26.71Z"/>
    <path class="cls-13" d="M1200.61,306.35c-32.26-3.69-69.96-26.99-26.59-40.7,43.37-13.71,93.42.31,74.07,22.99-19.35,22.69-47.48,17.7-47.48,17.7Z"/>
    <path class="cls-9" d="M1330.74,404.59c-11.89.85-21.6.61-27.04.33-4.2-8.58-9.86-19.3-16.4-33.14-19.14-40.51-46.63-45.02-46.63-45.02-45.04-5.03-87.53,7.55-105.88,14.12,9.22-12.53,21.42-26.84,33.71-34.66,10.42,4.24,23.47,6.78,39.53,5.46,54.58-4.51,67.21-46.91,62.7-65.86-4.51-18.94-35.06-24.6-77.91-22.34-42.85,2.26-57.29-3.61-76.68,3.61-19.4,7.22-37.89,26.61-55.48,48.71-6.05,7.6-12.94,14.45-20.37,21.34-19.94-1.69-103.95-.66-125.03,91.26-10.54.3-19.57.8-23.82,1.65-14.11,2.82-26.8,19.28-56.9,33.86-30.09,14.58-51.73,33.63-34.8,63.25,16.93,29.62,54.32,26.54,79.71,16.51,9.93-3.92,15.67-10.2,19-16.4,6.56-2.13,18.76-4.76,36.21-3.06,27.4,2.66,49.49,28.16,88.69,30.42,0,0,22.39,2.62,32.11,17.22,9.72,14.61,64.45,39.95,139.84-8.15,0,0,24.39,1.21,37.77,28.21l.04-.08c.28,3.57,1.24,7.56,3.37,11.82,7.95,15.9,31.51,26.48,51.83,18.97,20.32-7.51-9.59-53.04-13.56-74.69-3.62-19.72-4.06-23.65-25.81-34.21,16.7-.08,34.78.07,49.98.77,40.64,1.88,63.62-12.92,65.38-42.08,1.77-29.16-15.02-29.16-33.58-27.83ZM1284.98,386.5c3.26,6.35,6.49,11.95,9.34,16.88-6.41-3.97-13.64-3.99-13.64-3.99-4.38-3.71-8.58-13.57-4.26-15.39,2.33-.98,5.82.72,8.56,2.5ZM1228.63,334.64c27.02-1.66,41.35,21.7,54.27,47.71-9.63-5.53-13.71.6-11.33,9.16,2.71,9.74,9.11,12.65,9.11,12.65,12.06-.62,17.74,6.66,19.84,10.38,3.92,7.84,5,13.3.19,17.15-9.57,7.65-25.2,13.4-50.71-1.28-25.52-14.67-33.5-62.51-33.5-62.51-.72,8.72-1.22,19.23,2.46,31.36-19.1-.19-36.6,8.74-44.76,13.66-12.09-20.39-29.74-36.09-43.17-44.38-3.59-2.22-7-4.54-10.2-6.87,1.11-1.82,2.67-4.32,4.6-7.27,45.6-19.84,76.77-18.13,103.2-19.75ZM1222.02,407.44c.41.93.84,1.86,1.31,2.8-5.82-1-15.12-.63-22.71-.04,9.61-2.87,17.57-2.97,21.4-2.77ZM1031.14,309.11c-6.1,5.52-12.42,11.29-18.81,17.67-6.57.22-18.98,2.07-30.73,11.65,0,0,12.68-4.95,26.21-7.04-4.07,4.25-8.16,8.77-12.23,13.67-14.1,17.02-32.42,30.12-45.09,38,3.34-20,21.05-35.66,21.05-35.66-18.35,10.69-24.79,30.08-26.87,39.16-1.08.63-2.08,1.2-3,1.71-4.72.02-9.59.07-14.35.15,3.9-15.7,25.76-85.69,103.82-79.32ZM1342.23,456.72c-14.14,8.39-28.27,11.93-68.03,8.84-39.76-3.09-77.27,9.1-77.27,9.1,0,0,17.94-.59,40.84-.84,7.03,4.18,18.16,11.46,21.41,17.36,4.86,8.84,13.42,43.29,21.51,60.97,8.09,17.67,1.46,30.92-22.84,20.32-24.3-10.6-19.44-36.23-19.44-36.23,0,0-1.24,1.85-2.29,5.04-5.13-7.96-20.04-27.24-44.22-27.28,0,0-29.95,22.02-68.82,26.49-37.61,4.32-57.03-4.64-73.24-26.87,17.37-4.03,18.89-13.2,18.89-13.2,0,0-6.28,7.16-32.73,8.37-33.94,1.56-68.13-25.5-97.06-31.97-18.73-4.19-30.8-1.85-36.99.32.94-4.87.69-8.33.69-8.33-6.11,24.45-60.19,46.55-84.64,22.58-24.45-23.97-3.29-48.91,24.92-60.67,28.21-11.76,32.45-31.03,68.65-32.45,36.21-1.41,63.48-9.87,63.48-9.87,0,0-9.37-.13-21.84-.15,33.17-15.48,58.31-46.09,72.15-60.34,14.89-15.34,39.24-32.93,63.15-62.7,23.91-29.77,31.57-27.51,51.42-28.42,19.85-.9,61.34-1.35,91.11.9,29.77,2.26,37.44,12.18,28.42,31.12-9.02,18.94-35.18,37.44-67.66,33.38s-58.19-26.16-58.19-26.16c0,0,6.92,13.98,23.8,24.52-8.56,7.94-31.13,30.38-42.85,56.3-13.66-10.95-22.1-20.95-22.1-20.95,3.43,16.67,20.62,30.77,49.05,52.34,28.43,21.57,46.53,74.62,46.53,74.62.5-14.97-3.26-28.99-9.33-41.56,1.09-.82,2.18-1.6,3.27-2.32,19.8-.72,37.59-.34,46.32-.05,2.55,3.91,5.6,7.95,9.25,12.11,22.96,26.15,60.03,18.01,70.24,6.53,5.28-5.94,4.72-12.52.31-23.1,13.85-.29,25.77-4.17,39.42-.98,15.46,3.62,8.84,34.81-5.3,43.21ZM1074.35,483.67s9.38-72.77-59.51-86.67c0,0,76.97,7.76,59.51,86.67Z"/>
  </g>
</svg>