<?xml version="1.0" encoding="UTF-8"?>
<svg id="Head" xmlns="http://www.w3.org/2000/svg" xmlns:xlink="http://www.w3.org/1999/xlink" viewBox="0 0 1366 768">
  <defs>
    <style>
      .cls-1 {
        fill: url(#linear-gradient-2);
      }

      .cls-2 {
        fill: url(#linear-gradient-4);
      }

      .cls-3 {
        fill: url(#linear-gradient-3);
      }

      .cls-4 {
        fill: url(#linear-gradient-5);
      }

      .cls-5 {
        fill: #ffe6d6;
      }

      .cls-6 {
        fill: url(#linear-gradient-8);
      }

      .cls-7 {
        fill: url(#linear-gradient-7);
      }

      .cls-8 {
        fill: url(#linear-gradient-9);
      }

      .cls-9 {
        fill: url(#linear-gradient-6);
      }

      .cls-10 {
        fill: url(#linear-gradient);
      }
    </style>
    <linearGradient id="linear-gradient" x1="683" y1="405.04" x2="683" y2="94.1" gradientUnits="userSpaceOnUse">
      <stop offset="0" stop-color="#efa594"/>
      <stop offset="1" stop-color="#f8c8b8"/>
    </linearGradient>
    <linearGradient id="linear-gradient-2" x1="690.1" y1="194.87" x2="690.1" y2="97.4" gradientUnits="userSpaceOnUse">
      <stop offset=".17" stop-color="#c3846d"/>
      <stop offset="1" stop-color="#efa594"/>
    </linearGradient>
    <linearGradient id="linear-gradient-3" x1="683" y1="290.23" x2="683" y2="227.66" gradientUnits="userSpaceOnUse">
      <stop offset="0" stop-color="#efa594"/>
      <stop offset="1" stop-color="#aa7157"/>
    </linearGradient>
    <linearGradient id="linear-gradient-4" x1="683" y1="253.56" x2="683" y2="195.8" xlink:href="#linear-gradient-2"/>
    <linearGradient id="linear-gradient-5" x1="683" y1="405.1" x2="683" y2="308.52" gradientUnits="userSpaceOnUse">
      <stop offset="0" stop-color="#aa7157"/>
      <stop offset="1" stop-color="#efa594"/>
    </linearGradient>
    <linearGradient id="linear-gradient-6" x1="683" y1="291.68" x2="683" y2="258" gradientUnits="userSpaceOnUse">
      <stop offset="0" stop-color="#dc9683"/>
      <stop offset="1" stop-color="#efa594"/>
    </linearGradient>
    <linearGradient id="linear-gradient-7" x1="681.72" y1="258" x2="681.72" y2="9.11" gradientUnits="userSpaceOnUse">
      <stop offset="0" stop-color="#000"/>
      <stop offset="1" stop-color="#332e2d"/>
    </linearGradient>
    <linearGradient id="linear-gradient-8" x1="681.13" y1="156.8" x2="681.13" y2="9.11" gradientUnits="userSpaceOnUse">
      <stop offset="0" stop-color="#1f1c1c"/>
      <stop offset="1" stop-color="#827f7d"/>
    </linearGradient>
    <linearGradient id="linear-gradient-9" x1="683" y1="407.81" x2="683" y2="6.68" gradientUnits="userSpaceOnUse">
      <stop offset="0" stop-color="#1e0d09"/>
      <stop offset="1" stop-color="#000"/>
    </linearGradient>
  </defs>
  <path class="cls-10" d="M902.28,271.03c-10.27,24.48-34.64,41.53-68.43,28.78,0,0-21.55,104.9-150.56,105.22h0c-.1,0-.2,0-.3,0-.1,0-.2,0-.3,0h0c-129.01-.33-150.56-105.23-150.56-105.23-33.79,12.75-58.16-4.3-68.43-28.78-7.43-17.74-7.46-39.37,1.7-56.38,17.75-32.95,48.15-12.26,58.85-3.42,2.45,2.02,3.86,3.42,3.86,3.42l23.14-110.06,131.44-10.44v-.05l.3.02.3-.02v.05l131.44,10.44,23.14,110.06s1.41-1.4,3.86-3.42c10.7-8.84,41.1-29.53,58.85,3.42,9.16,17.01,9.13,38.64,1.7,56.38Z"/>
  <path class="cls-1" d="M574.68,114.31s-7.07,57.53,78.64,71.02l-9.34-17.46s49.12,38.25,159.07,23.69c0,0,14.72-35.79-25.75-75.96-40.47-40.17-202.61-1.29-202.61-1.29Z"/>
  <path class="cls-3" d="M879.16,281.35c-14.33,15.35-33.36,6.14-33.36,6.14,0,0,5.73-13.51,0-23.13-5.73-9.62,1.43-14.8,1.43-14.8,0,0,9.13-19.83,31.52-21.84,22.39-2.01,14.74,38.27.41,53.62ZM518.77,249.57s-9.13-19.83-31.52-21.84-14.74,38.27-.41,53.62c14.33,15.35,33.36,6.14,33.36,6.14,0,0-5.73-13.51,0-23.13,5.73-9.62-1.43-14.8-1.43-14.8Z"/>
  <path class="cls-2" d="M749.33,201.59s-31.7,5.68-44.82,20.16c0,0-2.97-19.48,13.62-25.94,0,0,15.35.62,31.2,5.79ZM757.42,218.4c-41.3,0-46.85,33.85-46.85,33.85,47.74-33.86,92.48,1.32,92.48,1.32,0,0-13.97-35.16-45.63-35.16ZM608.58,218.4c-31.66,0-45.63,35.16-45.63,35.16,0,0,44.73-35.18,92.48-1.32,0,0-5.55-33.85-46.85-33.85ZM647.88,195.8s-15.35.62-31.2,5.79c0,0,31.7,5.68,44.82,20.16,0,0,2.97-19.48-13.62-25.94Z"/>
  <path class="cls-4" d="M683,374.51c-101.89-.13-147.22-66-147.22-66,33.14,99.14,140.93,96.76,147.22,96.53,6.28.22,114.08,2.61,147.22-96.53,0,0-45.33,65.87-147.22,66Z"/>
  <path class="cls-9" d="M683.3,291.66c6.32-.18,9.6-3.19,9.6-3.19-1.23-10.06-7.61-24.78-9.6-29.18v-1.29s-.11.23-.3.64c-.19-.41-.3-.64-.3-.64v1.29c-1.99,4.4-8.37,19.12-9.6,29.18,0,0,3.28,3.01,9.6,3.19v.02c.1,0,.2,0,.3,0,.1,0,.19,0,.3,0v-.02Z"/>
  <path class="cls-5" d="M832.63,262.64c1.56,81.3-28.81,98.87-28.81,98.87,27.76-25.2,27.25-65.69,18.24-101.35-9.01-35.66,3.33-35.27-4.96-68.6-8.3-33.33-45.71-77.79-45.71-77.79,0,0-37.16-60.43,9.76-14.64,46.92,45.79,49.92,82.2,51.48,163.51ZM900.58,214.65c-17.75-32.95-48.15-12.26-58.85-3.42l-.91,20.03s15.77-25.15,39.79-19.9c19.22,4.21,22.34,30.4,21.67,59.67,7.43-17.74,7.46-39.37-1.7-56.38ZM465.42,214.65c-9.16,17.01-9.13,38.64-1.7,56.38-.67-29.27,2.45-55.46,21.67-59.67,24.02-5.25,39.79,19.9,39.79,19.9l-.91-20.03c-10.7-8.84-41.1-29.53-58.85,3.42ZM584.85,99.13c-46.92,45.79-49.92,82.2-51.48,163.51s28.81,98.87,28.81,98.87c-27.76-25.2-27.25-65.69-18.24-101.35,9.01-35.66-3.33-35.27,4.96-68.6,8.3-33.33,45.71-77.79,45.71-77.79,0,0,37.16-60.43-9.76-14.64Z"/>
  <path class="cls-7" d="M819.38,97.29s44.54,74.74,12.78,160.71c0,0-4.26-25.56-3.48-49.18.77-23.62-16.66-72.03-16.66-72.03l-7.35,38.34s-47.62,10.89-110.68-5.07c-21.12-5.34-43.98-13.7-67.35-26.5-.81-.44-1.62-.89-2.43-1.34.04.1.34.78.84,1.86,2.27,4.92,8.71,18.22,14.64,24.47,0,0-21.93-3.84-42.73-17.39-11.56-7.53-22.77-18.05-29.68-32.57,0,0-30.28,37.56-31.79,82.1-1.52,44.53-2.68,57.31-2.68,57.31,0,0-27.11-82.48,6.97-149.48h-37.17s7.35-16.65,37.17-25.94c0,0-3.1-21.69,13.94-40.67,0,0,.39,15.88,6.2,22.46,0,0,36.4-53.2,127.02-55.26l-16.65,16.93s32.43-6.53,73.34.09c19.74,3.19,41.45,9.44,62.45,20.97,19.13,10.5,37.67,25.38,53.57,46.32.4.51.78,1.03,1.17,1.55l-41.44,2.32Z"/>
  <path class="cls-6" d="M859.65,93.42c-90.59-62.83-211.01-57.15-211.01-57.15l5.36-6.25c-61.3,7.74-94.93,44.93-94.93,44.93l-7.44-13.39c-4.47,13.1,0,28.87,0,28.87-20.35.75-38.35,10.74-48.95,18.09h-.07s7.35-16.65,37.17-25.94c0,0-3.1-21.69,13.94-40.67,0,0,.39,15.88,6.2,22.46,0,0,36.4-53.2,127.02-55.26l-16.65,16.93s119.86-24.13,189.36,67.38ZM796.66,156.8s-8.7-88.47-93.55-104.42c0,0,67.08,47.86,93.55,104.42Z"/>
  <path class="cls-8" d="M896.46,197.91c-22.78-16.55-39.85-6.03-48.44,2.4,1.08-15.44.41-32.45-3.75-49.48-4.12-16.87-8.78-34.25-18.5-50.33h-1.6l43.64-2.57s-43.96-90.06-188.56-77.41l14.95-13.03s-81.25-11.41-132.53,51.83c0,0-5.7-12.74-5.13-25.03,0,0-19,10.5-21.05,46.35,0,0-31.7,8.32-39.22,32.24,0,0,21.25-1.52,38.68.36-5.94,12.32-10.17,25.1-13.22,37.6-4.16,17.03-4.83,34.04-3.75,49.48-8.59-8.43-25.66-18.95-48.44-2.4-32.91,23.9-19.54,130.47,58.47,107.52,3.11,19.65,12.35,41.72,34.58,62.14,48.54,44.57,120.41,40.12,120.41,40.12,0,0,71.87,4.45,120.41-40.12,22.23-20.42,31.47-42.49,34.58-62.14,78.01,22.95,91.38-83.62,58.47-107.52ZM526.68,288.16c-3.91-3.01-9.15-9.4-4.95-20.42,6.27-16.43-.7-25.04-12.7-37.03-11.99-11.99-29.27-12.7-36.67,0,0,0,19.04-7.05,34.91,14.11,15.87,21.16.71,20.1,5.29,34.2,3.09,9.51,10.01,12.61,14.21,13.62.07,1.92.2,3.89.38,5.88-12.81,2.35-45.92,5.01-58.32-26.55-15.52-39.5-1.06-64.54,19.4-69.12,13.79-3.09,25.65,8.24,31.92,15.96,2.88,17.71,7.45,31.79,10.09,39.02-1.6,7.42-3.55,17.99-3.56,30.33ZM683,399.76c-101.49,0-157.06-70.33-146.16-136.21,10.89-65.87-9.91-46.56,18.32-113.42,3.88-9.19,8.1-17.35,12.63-24.61,10.87,20.8,33.7,46.03,80.63,47.31l-19.21-24.89c1.47,1.32,57.95,51.31,176.17,32.76,0,0,4.96-10.39,7.76-25.06,24.77,60.32,5.44,43.92,16.02,107.91,10.9,65.88-44.67,136.21-146.16,136.21ZM825.7,161.52c-2.89-8.97-6.31-18.3-10.74-27.49h-.01c-.33-11.16-2.89-22.96-9.57-33.78,0,0,2.13,8.63,2.82,21.34,0,0,0,0,.01.02,0,.12.01.24.02.36.04.92.08,1.86.11,2.81.06,1.86.09,3.8.07,5.79,0,.37,0,.73,0,1.1-.01.59-.02,1.18-.04,1.78-.01.29-.02.59-.03.88-.03.76-.06,1.53-.1,2.31-.05.83-.1,1.67-.16,2.51-.1,1.3-.21,2.62-.35,3.95v.02c-.95,9.01-2.96,18.62-6.72,27.96,0,0-116.29,22.73-181-38.04,0,0-1.31,15.74,9.62,29.3,0,0-33.98-4.41-58.96-41.24-.08-.11-.16-.22-.22-.33-.26-.37-.51-.75-.76-1.13-.94-1.43-1.87-2.9-2.78-4.43-.41-.7-.82-1.4-1.23-2.12-.31-.55-.62-1.11-.93-1.67-2.26-4.11-4.4-8.55-6.39-13.35,0,0,.89,6.69,4.38,16.08-10.8,15.1-17.41,31.78-22.43,47.37-13.04,40.47-6.48,67.87-8.13,85.92-3.66-19.16-9.57-61.77.14-102.43,2.49-10.44,5.82-20.77,10.28-30.66,1.45-3.21,3.02-6.38,4.72-9.48-2.07-.16-4.73-.33-7.74-.49-9.56-.48-22.62-.7-31.43.86,0,0,11.28-11.96,34.18-20.51,0,0,.69-27.69,9.57-37.6,0,0-.34,13.69,7.87,23.25,0,0,30.42-49.92,118.27-57.78l-18.8,16.75s125.8-21.19,193.83,60.85l-33.34,3.38-7.46.76,4.21,6.62c8.15,13.75,13.57,28.79,17.22,44.05,9.71,40.66,3.8,83.27.14,102.43-1.65-18.05,4.91-45.45-8.13-85.92ZM838.85,298.52c.18-1.99.31-3.96.38-5.88,4.2-1.01,11.12-4.11,14.21-13.62,4.58-14.1-10.58-13.04,5.29-34.2,15.87-21.16,34.91-14.11,34.91-14.11-7.4-12.7-24.68-11.99-36.67,0-12,11.99-18.97,20.6-12.7,37.03,4.2,11.02-1.04,17.41-4.95,20.42-.01-12.34-1.96-22.91-3.56-30.33,2.64-7.23,7.21-21.31,10.09-39.02,6.27-7.72,18.13-19.05,31.92-15.96,20.46,4.58,34.92,29.62,19.4,69.12-12.4,31.56-45.51,28.9-58.32,26.55Z"/>
  <path d="M575.78,169.32c4.26-4.71,9.47-8.93,15.84-12,28.3-13.66,49.03-13,55.28-11.68,6.25,1.32,3.95,12.5,3.95,12.5l4.28-6.58c.17,6.69-1.45,12.54-3.09,16.66-1.45,3.66-5.42,5.63-9.22,4.65-26.24-6.76-47.08-3.16-62.29,3.14-4.11,1.7-7.73-3.39-4.74-6.69ZM588.65,227.13s9.03-1.51,21.5.51c-25.06,3.63-47.49,25.92-47.49,25.92,41.61-27.06,92.48-1.32,92.48-1.32,0,0-15.15-44.96-66.48-25.11ZM617.35,313.1s2.93,8.52,26.2,18.19c16.06,6.67,39.45,4.19,39.45,4.19,0,0,23.39,2.49,39.45-4.19,23.26-9.66,26.2-18.19,26.2-18.19,0,0-25.92,19.53-65.65,19.53s-65.65-19.53-65.65-19.53ZM713.96,168.22c1.45,3.66,5.42,5.63,9.22,4.65,26.24-6.76,47.08-3.16,62.29,3.14,4.11,1.7,7.73-3.39,4.74-6.69-4.26-4.71-9.47-8.93-15.84-12-28.3-13.66-49.03-13-55.28-11.68-6.25,1.32-3.95,12.5-3.95,12.5l-4.28-6.58c-.17,6.69,1.45,12.54,3.09,16.66ZM755.85,227.64c12.47-2.01,21.5-.51,21.5-.51-51.33-19.85-66.48,25.11-66.48,25.11,0,0,50.87-25.75,92.48,1.32,0,0-22.43-22.29-47.49-25.92Z"/>
</svg>