<?xml version="1.0" encoding="UTF-8"?>
<svg id="Hoodie" xmlns="http://www.w3.org/2000/svg" xmlns:xlink="http://www.w3.org/1999/xlink" viewBox="0 0 1366 768">
  <defs>
    <style>
      .cls-1 {
        fill: url(#linear-gradient-2);
      }

      .cls-2 {
        fill: #fff;
      }

      .cls-3 {
        fill: url(#linear-gradient-3);
      }

      .cls-4 {
        fill: #ffe6d6;
      }

      .cls-5 {
        fill: #bf7030;
      }

      .cls-6 {
        fill: #ffad5c;
      }

      .cls-7 {
        fill: url(#linear-gradient);
      }
    </style>
    <linearGradient id="linear-gradient" x1="683" y1="720.43" x2="683" y2="234.63" gradientUnits="userSpaceOnUse">
      <stop offset="0" stop-color="#ef9543"/>
      <stop offset="1" stop-color="#ffad5c"/>
    </linearGradient>
    <linearGradient id="linear-gradient-2" x1="683" y1="446.67" x2="683" y2="234.58" gradientUnits="userSpaceOnUse">
      <stop offset="0" stop-color="#aa7157"/>
      <stop offset="1" stop-color="#efa594"/>
    </linearGradient>
    <linearGradient id="linear-gradient-3" x1="683" y1="720.43" x2="683" y2="206.58" gradientUnits="userSpaceOnUse">
      <stop offset="0" stop-color="#573400"/>
      <stop offset="1" stop-color="#995b00"/>
    </linearGradient>
  </defs>
  <path class="cls-6" d="M1043.98,720.43H322.02s30.87-152.83,61.75-245.45c30.87-92.62,101.88-125.04,101.88-125.04,3.86-34.73,19.29-26.24,19.29-26.24,16.98-124.27,178.06-111.14,178.06-111.14,0,0,161.08-13.13,178.06,111.14,0,0,15.43-8.49,19.29,26.24,0,0,71.01,32.42,101.88,125.04,30.88,92.62,61.75,245.45,61.75,245.45Z"/>
  <path class="cls-7" d="M585.54,394.73c-51.18-64.87,2.98-136.89,47.44-157.45l50.02-2.65,50.02,2.65c44.47,20.56,98.63,92.58,47.44,157.45-51.18,64.87-97.46,71.85-97.46,71.85,0,0-46.28-6.98-97.46-71.85ZM889.97,571.49c-3.57-93.44-68.44-104.91-68.44-104.91,52.38-48.37,31.54-96.62,31.54-96.62-31.08,57.85-121.26,88.86-170.07,101.82-48.81-12.96-138.99-43.97-170.07-101.82,0,0-20.84,48.25,31.54,96.62,0,0-64.87,11.47-68.44,104.91-2.59,67.52,59.75,123.23,94.54,148.94h224.86c34.79-25.71,97.13-81.42,94.54-148.94Z"/>
  <path class="cls-5" d="M661.77,451.69l6.41,74.24s9.78,5.5,6.75,18.19c0,0,5.06,17.54-8.07,18.75s-14.48-5.45-14.48-5.45l9.39-105.73ZM708.74,598.06s1.35,6.66,14.48,5.45c13.13-1.21,8.07-18.75,8.07-18.75,3.03-12.69-6.75-18.19-6.75-18.19l-6.41-128.95-9.39,160.44Z"/>
  <path class="cls-4" d="M1043.98,720.43h-77.68c-.36-36.87-2.23-106.27-10.41-184.86-12.11-116.53-81.2-168.27-81.2-168.27l-2.82,12.09c4.24-32.14-8.38-39.55-8.38-39.55l-17.2,35.33c.25-1.66,12.7-83.89-42.12-121.7-39.13-26.99-92.96-30.81-121.17-30.73-28.21-.08-82.04,3.74-121.17,30.73-54.82,37.81-42.37,120.04-42.12,121.7l-17.2-35.33s-12.62,7.41-8.38,39.55l-2.82-12.09s-69.09,51.74-81.2,168.27c-8.18,78.59-10.05,147.99-10.41,184.86h-77.68s30.87-152.83,61.75-245.45c30.87-92.62,101.88-125.04,101.88-125.04,3.86-34.73,19.29-26.24,19.29-26.24,16.98-124.27,178.06-111.14,178.06-111.14,0,0,161.08-13.13,178.06,111.14,0,0,15.43-8.49,19.29,26.24,0,0,71.01,32.42,101.88,125.04,30.88,92.62,61.75,245.45,61.75,245.45Z"/>
  <path class="cls-2" d="M668.18,542.95c5.46,20.19-11.02,11.82-11.02,11.82-20.19,10.46-14.46-8.68-14.46-8.68-13.22-11.41,7.64-19.51,7.64-19.51v-88.96l9.52,7.91,1.39,83.86c13.45,3.98,6.92,13.56,6.92,13.56ZM715.66,566.16v-128.55l-9.52,7.91-1.39,123.45c-13.45,3.98-6.92,13.56-6.92,13.56-5.46,20.19,11.02,11.82,11.02,11.82,20.19,10.46,14.46-8.68,14.46-8.68,13.22-11.41-7.64-19.51-7.64-19.51Z"/>
  <path class="cls-1" d="M767.57,315.09c-3.81,85.18-84.57,131.58-84.57,131.58,0,0-80.75-46.4-84.57-131.58-3.81-85.18,84.57-80.46,84.57-80.46,0,0,88.38-4.72,84.57,80.46Z"/>
  <path class="cls-3" d="M662.79,527.97l-1.02-76.27c1.77.38,2.75-.76-.66-7.07-6.66-12.34-28.13-13.82-28.13-13.82,6.2,1.78,11.05,4.56,14.75,7.43l.07,87.17c-3.8,1.34-11.63,5.74-11.29,12.61.22,4.43,2.11,7.08,4.14,9.35-.78,1.96-1.56,8.25,1.85,11.11,2.85,2.39,8.14,1.9,13.4-.97,2.47.92,10.42,2.69,13.67-.44,3.13-3.02,2.29-12.41,1.32-15.16,3.03-7.18-2.9-12.02-8.11-13.93ZM652.97,443.08c2,2.2,3.31,4.13,4.02,5.29l1.65,90.02-2.8,2.39c-.91-.89-1.95-1.97-2.87-3.09v-94.62ZM640.63,536.85c1.97-4.8,6.42-6.73,8.88-7.46v2.41c-1.31.37-2.67,1.42-1.34,4.39,1.46,3.25,3.93,5.39,5.47,6.47l-6.53,5.57c-.51-.32-1.12-.72-1.77-1.2,0-.06.01-.09.01-.09,0,0-.02.03-.04.08-2.88-2.16-6.45-5.86-4.69-10.16ZM645.51,549.59h0s-.01,0-.01,0c0,0,.01,0,.02,0ZM648.62,555.97c-5.85.51-5.16-4.02-4.19-6.86.32.15.62.29.89.4.21,1.23.88,2.18,2.8.97,1.68-1.06,6.23-4.33,10.06-7.56h0s0,0,0,0c4.74-4,8.34-7.93,3.92-7.48h-.01s-.04-3.2-.04-3.2c1.49,1.03,4.92,3.8,4.81,7.54-.15,4.77-9.79,15.44-18.24,16.19ZM666.71,553.45c-1.76,1.96-4.91,1.33-6.85.68,2.28-1.62,4.56-3.67,6.7-6.16.54-.63,1.01-1.26,1.41-1.88.32,2.07.49,5.42-1.27,7.37ZM1051.94,720.43h-22.32s-25.89-191.05-66.07-269.62c-35.16-68.75-72.36-88.96-81.11-92.94-4.07,16.19-13.23,30.15-13.23,30.15,13.43-40.28,3.98-53.11-1.47-56.98-.53,61.33-67.51,90.85-67.51,90.85,0,0,70.82-49.87,51.87-116.71-18.95-66.83-100.31-93.26-169.1-87.78-68.8-5.49-150.15,20.95-169.1,87.78-18.95,66.83,51.87,116.71,51.87,116.71,0,0-66.99-29.52-67.51-90.85-5.45,3.87-14.89,16.7-1.47,56.98,0,0-9.16-13.96-13.23-30.15-8.75,3.98-45.95,24.19-81.11,92.94-40.17,78.56-66.07,269.62-66.07,269.62h-22.32s8.03-34.82,41.07-191.05c29.16-137.91,108.39-180.03,126.58-188.02.59-10.57,5.28-20.44,17.91-26.45,1.74-10.03,5.23-20.78,10.94-32.26,43.13-86.78,172.46-75.61,172.46-75.61,0,0,129.32-11.16,172.46,75.61,5.71,11.49,9.19,22.23,10.94,32.26,12.63,6.01,17.32,15.88,17.91,26.45,18.18,7.99,97.42,50.11,126.58,188.02,33.03,156.23,41.07,191.05,41.07,191.05ZM733.02,430.81s-21.47,1.48-28.13,13.82c-3.4,6.31-2.43,7.45-.66,7.07l-1.02,116.47c-5.21,1.91-11.15,6.75-8.11,13.93-.97,2.76-1.8,12.15,1.32,15.16,3.25,3.13,11.2,1.36,13.67.44,5.26,2.87,10.56,3.36,13.4.97,3.41-2.86,2.64-9.15,1.85-11.11,2.04-2.26,3.92-4.92,4.14-9.35.35-6.87-7.49-11.27-11.29-12.61l.07-127.38c3.7-2.87,8.55-5.65,14.75-7.43ZM709.01,448.38c.71-1.17,2.02-3.09,4.02-5.29v134.82c-.92,1.12-1.96,2.2-2.87,3.09l-2.8-2.39,1.65-130.22ZM699.29,593.65c-1.75-1.95-1.59-5.29-1.27-7.37.41.62.87,1.25,1.41,1.88,2.13,2.49,4.41,4.54,6.7,6.16-1.94.65-5.08,1.28-6.85-.68ZM717.38,596.18c-8.45-.74-18.09-11.42-18.24-16.19-.12-3.74,3.32-6.52,4.81-7.54l-.04,3.21h-.01c-4.42-.46-.82,3.47,3.92,7.47h0s0,0,0,0c3.82,3.23,8.38,6.5,10.06,7.56,1.92,1.21,2.6.25,2.8-.97.27-.11.57-.25.89-.4.98,2.84,1.67,7.37-4.19,6.86ZM720.49,589.79s.01,0,.02,0h-.01s0,0,0,0ZM725.37,577.05c1.76,4.3-1.8,8-4.69,10.16-.02-.05-.04-.08-.04-.08,0,0,0,.04.01.09-.65.48-1.26.89-1.77,1.2l-6.53-5.57c1.53-1.09,4.01-3.22,5.47-6.47,1.33-2.97-.03-4.02-1.34-4.39v-2.41c2.46.72,6.91,2.65,8.88,7.46ZM683,229.29s-92.05-11.38-89.74,83.23c2.31,94.61,89.74,138.3,89.74,138.3,0,0,87.43-43.69,89.74-138.3,2.31-94.61-89.74-83.23-89.74-83.23ZM683,439.28s-81.66-49.61-80.51-126.92c1.15-77.3,80.51-72.69,80.51-72.69,0,0,79.36-4.62,80.51,72.69s-80.51,126.92-80.51,126.92Z"/>
</svg>