<?xml version="1.0" encoding="UTF-8"?>
<svg id="Layer_2" data-name="Layer 2" xmlns="http://www.w3.org/2000/svg" viewBox="0 0 85.49 81.89">
  <defs>
    <style>
      .cls-1 {
        fill: #202020;
      }

      .cls-2 {
        fill: #ffa600;
      }
    </style>
  </defs>
  <g id="Layer_1-2" data-name="Layer 1">
    <path class="cls-2" d="M30.14,69.84c-6.52,0-11.8-5.29-11.8-11.8V23.83c0-6.52,5.29-11.8,11.8-11.8h38.82v-.02c-1.79-6.9-8.05-12-15.51-12H16.04C7.18,0,0,7.18,0,16.04v49.81c0,8.86,7.18,16.04,16.04,16.04h37.41c7.46,0,13.72-5.11,15.51-12.01v-.05H30.14Z"/>
    <g>
      <path class="cls-1" d="M59.05,49.55c-1.24.82-2.68,1.26-4.17,1.26s-2.92-.44-4.16-1.26l-26.29-17.53s-.09-.06-.13-.09v26.2c0,3.18,2.58,5.76,5.76,5.76h49.65c3.18,0,5.76-2.58,5.76-5.76v-26.2s-.09.06-.13.09l-26.29,17.53Z"/>
      <path class="cls-1" d="M26.65,27.7l26.29,17.52c1.18.79,2.72.79,3.9,0l26.29-17.52c4.36-2.9,2.3-9.7-2.94-9.7H29.59c-5.24,0-7.29,6.79-2.94,9.7ZM53.05,35.51h3.68c.89,0,1.61.72,1.61,1.61s-.72,1.61-1.61,1.61h-3.68c-.89,0-1.61-.72-1.61-1.61s.72-1.61,1.61-1.61Z"/>
    </g>
  </g>
</svg>