<?xml version="1.0" encoding="UTF-8"?>
<svg xmlns="http://www.w3.org/2000/svg" xmlns:xlink="http://www.w3.org/1999/xlink" viewBox="0 0 1366 768">
  <defs>
    <style>
      .cls-1 {
        fill: url(#linear-gradient-15);
      }

      .cls-2 {
        fill: url(#linear-gradient-13);
      }

      .cls-3 {
        fill: url(#linear-gradient-2);
      }

      .cls-4 {
        fill: url(#linear-gradient-10);
      }

      .cls-5 {
        fill: url(#linear-gradient-12);
      }

      .cls-6 {
        fill: #fff;
      }

      .cls-7 {
        fill: url(#linear-gradient-4);
      }

      .cls-8 {
        fill: url(#radial-gradient);
      }

      .cls-9 {
        fill: url(#linear-gradient-3);
      }

      .cls-10 {
        fill: url(#linear-gradient-5);
      }

      .cls-11 {
        fill: url(#linear-gradient-22);
      }

      .cls-12 {
        fill: url(#linear-gradient-24);
      }

      .cls-13 {
        fill: #ffe6d6;
      }

      .cls-14 {
        fill: url(#linear-gradient-8);
      }

      .cls-15 {
        fill: #bf7030;
      }

      .cls-16 {
        fill: #efa594;
      }

      .cls-17 {
        fill: url(#linear-gradient-14);
      }

      .cls-18 {
        fill: #1e0d09;
      }

      .cls-19 {
        fill: #ffa600;
      }

      .cls-20 {
        fill: url(#linear-gradient-20);
      }

      .cls-21 {
        fill: url(#linear-gradient-17);
      }

      .cls-22 {
        fill: #441e68;
      }

      .cls-23 {
        fill: url(#linear-gradient-7);
      }

      .cls-24 {
        fill: url(#linear-gradient-9);
      }

      .cls-25 {
        fill: url(#linear-gradient-11);
      }

      .cls-26 {
        fill: url(#linear-gradient-19);
      }

      .cls-27 {
        fill: #ffad5c;
      }

      .cls-28 {
        fill: url(#linear-gradient-6);
      }

      .cls-29 {
        fill: url(#linear-gradient-21);
      }

      .cls-30 {
        fill: #633789;
      }

      .cls-31 {
        fill: url(#linear-gradient-16);
      }

      .cls-32 {
        fill: url(#linear-gradient);
      }

      .cls-33 {
        fill: url(#linear-gradient-23);
      }

      .cls-34 {
        fill: url(#linear-gradient-18);
      }

      .cls-35 {
        fill: #1b0f26;
      }
    </style>
    <linearGradient id="linear-gradient" x1="683" y1="720.43" x2="683" y2="234.63" gradientUnits="userSpaceOnUse">
      <stop offset="0" stop-color="#ef9543"/>
      <stop offset="1" stop-color="#ffad5c"/>
    </linearGradient>
    <linearGradient id="linear-gradient-2" x1="683" y1="446.67" x2="683" y2="234.58" gradientUnits="userSpaceOnUse">
      <stop offset="0" stop-color="#aa7157"/>
      <stop offset="1" stop-color="#efa594"/>
    </linearGradient>
    <linearGradient id="linear-gradient-3" x1="683" y1="720.43" x2="683" y2="206.58" gradientUnits="userSpaceOnUse">
      <stop offset="0" stop-color="#573400"/>
      <stop offset="1" stop-color="#995b00"/>
    </linearGradient>
    <linearGradient id="linear-gradient-4" x1="683" y1="405.04" x2="683" y2="94.1" gradientUnits="userSpaceOnUse">
      <stop offset="0" stop-color="#efa594"/>
      <stop offset="1" stop-color="#f8c8b8"/>
    </linearGradient>
    <linearGradient id="linear-gradient-5" x1="690.1" y1="194.87" x2="690.1" y2="97.4" gradientUnits="userSpaceOnUse">
      <stop offset=".17" stop-color="#c3846d"/>
      <stop offset="1" stop-color="#efa594"/>
    </linearGradient>
    <linearGradient id="linear-gradient-6" x1="683" y1="290.23" x2="683" y2="227.66" gradientUnits="userSpaceOnUse">
      <stop offset="0" stop-color="#efa594"/>
      <stop offset="1" stop-color="#aa7157"/>
    </linearGradient>
    <linearGradient id="linear-gradient-7" x1="683" y1="253.56" x2="683" y2="195.8" xlink:href="#linear-gradient-5"/>
    <linearGradient id="linear-gradient-8" x1="683" y1="405.1" x2="683" y2="308.52" xlink:href="#linear-gradient-2"/>
    <linearGradient id="linear-gradient-9" x1="683" y1="291.68" x2="683" y2="258" gradientUnits="userSpaceOnUse">
      <stop offset="0" stop-color="#dc9683"/>
      <stop offset="1" stop-color="#efa594"/>
    </linearGradient>
    <linearGradient id="linear-gradient-10" x1="681.72" y1="258" x2="681.72" y2="9.11" gradientUnits="userSpaceOnUse">
      <stop offset="0" stop-color="#000"/>
      <stop offset="1" stop-color="#332e2d"/>
    </linearGradient>
    <linearGradient id="linear-gradient-11" x1="681.13" y1="156.8" x2="681.13" y2="9.11" gradientUnits="userSpaceOnUse">
      <stop offset="0" stop-color="#1f1c1c"/>
      <stop offset="1" stop-color="#827f7d"/>
    </linearGradient>
    <linearGradient id="linear-gradient-12" x1="683" y1="407.81" x2="683" y2="6.68" gradientUnits="userSpaceOnUse">
      <stop offset="0" stop-color="#1e0d09"/>
      <stop offset="1" stop-color="#000"/>
    </linearGradient>
    <linearGradient id="linear-gradient-13" x1="320.65" y1="670.42" x2="320.65" y2="420.27" gradientTransform="translate(411.58 -69.71) rotate(36.94) scale(.92 1)" xlink:href="#linear-gradient"/>
    <linearGradient id="linear-gradient-14" x1="289.56" y1="682.48" x2="289.56" y2="447.2" gradientTransform="translate(411.58 -69.71) rotate(36.94) scale(.92 1)" gradientUnits="userSpaceOnUse">
      <stop offset="0" stop-color="#995b00"/>
      <stop offset="1" stop-color="#000"/>
    </linearGradient>
    <linearGradient id="linear-gradient-15" x1="668.44" y1="430.01" x2="668.44" y2="179.86" gradientTransform="translate(1354.45 -69.71) rotate(143.06) scale(.92 -1)" xlink:href="#linear-gradient"/>
    <linearGradient id="linear-gradient-16" x1="637.36" y1="442.07" x2="637.36" y2="180.91" gradientTransform="translate(1354.45 -69.71) rotate(143.06) scale(.92 -1)" xlink:href="#linear-gradient-14"/>
    <linearGradient id="linear-gradient-17" x1="342.73" y1="526.37" x2="342.73" y2="191.56" gradientUnits="userSpaceOnUse">
      <stop offset="0" stop-color="#aa7157"/>
      <stop offset="1" stop-color="#efa594"/>
    </linearGradient>
    <linearGradient id="linear-gradient-18" x1="372" y1="490.87" x2="372" y2="70.07" gradientUnits="userSpaceOnUse">
      <stop offset="0" stop-color="#441e68"/>
      <stop offset="1" stop-color="#f4b78c"/>
    </linearGradient>
    <linearGradient id="linear-gradient-19" x1="416.35" y1="461.3" x2="480.12" y2="397.53" gradientUnits="userSpaceOnUse">
      <stop offset=".13" stop-color="#1b0f26"/>
      <stop offset="1" stop-color="#441e68"/>
    </linearGradient>
    <linearGradient id="linear-gradient-20" x1="448.17" y1="457.37" x2="448.17" y2="386.51" gradientUnits="userSpaceOnUse">
      <stop offset="0" stop-color="#441e68"/>
      <stop offset=".87" stop-color="#1b0f26"/>
    </linearGradient>
    <linearGradient id="linear-gradient-21" x1="1091.08" y1="577.8" x2="1091.08" y2="265.66" xlink:href="#linear-gradient-17"/>
    <linearGradient id="linear-gradient-22" x1="1261.53" y1="443.97" x2="1261.53" y2="391.44" xlink:href="#linear-gradient-17"/>
    <linearGradient id="linear-gradient-23" x1="1203.41" y1="306.82" x2="1203.41" y2="260.24" xlink:href="#linear-gradient-17"/>
    <radialGradient id="radial-gradient" cx="680.4" cy="707.05" fx="673.67" fy="707.05" r="823.49" gradientTransform="translate(0 534.71) scale(1 .24)" gradientUnits="userSpaceOnUse">
      <stop offset=".13" stop-color="#1b0f26"/>
      <stop offset="1" stop-color="#441e68"/>
    </radialGradient>
    <linearGradient id="linear-gradient-24" x1="683" y1="751.05" x2="683" y2="616.35" gradientUnits="userSpaceOnUse">
      <stop offset="0" stop-color="#321c42"/>
      <stop offset="1" stop-color="#441e68"/>
    </linearGradient>
  </defs>
  <g id="Hoodie">
    <path class="cls-27" d="M1043.98,720.43H322.02s30.87-152.83,61.75-245.45c30.87-92.62,101.88-125.04,101.88-125.04,3.86-34.73,19.29-26.24,19.29-26.24,16.98-124.27,178.06-111.14,178.06-111.14,0,0,161.08-13.13,178.06,111.14,0,0,15.43-8.49,19.29,26.24,0,0,71.01,32.42,101.88,125.04,30.88,92.62,61.75,245.45,61.75,245.45Z"/>
    <path class="cls-32" d="M585.54,394.73c-51.18-64.87,2.98-136.89,47.44-157.45l50.02-2.65,50.02,2.65c44.47,20.56,98.63,92.58,47.44,157.45-51.18,64.87-97.46,71.85-97.46,71.85,0,0-46.28-6.98-97.46-71.85ZM889.97,571.49c-3.57-93.44-68.44-104.91-68.44-104.91,52.38-48.37,31.54-96.62,31.54-96.62-31.08,57.85-121.26,88.86-170.07,101.82-48.81-12.96-138.99-43.97-170.07-101.82,0,0-20.84,48.25,31.54,96.62,0,0-64.87,11.47-68.44,104.91-2.59,67.52,59.75,123.23,94.54,148.94h224.86c34.79-25.71,97.13-81.42,94.54-148.94Z"/>
    <path class="cls-15" d="M661.77,451.69l6.41,74.24s9.78,5.5,6.75,18.19c0,0,5.06,17.54-8.07,18.75s-14.48-5.45-14.48-5.45l9.39-105.73ZM708.74,598.06s1.35,6.66,14.48,5.45,8.07-18.75,8.07-18.75c3.03-12.69-6.75-18.19-6.75-18.19l-6.41-128.95-9.39,160.44Z"/>
    <path class="cls-13" d="M1043.98,720.43h-77.68c-.36-36.87-2.23-106.27-10.41-184.86-12.11-116.53-81.2-168.27-81.2-168.27l-2.82,12.09c4.24-32.14-8.38-39.55-8.38-39.55l-17.2,35.33c.25-1.66,12.7-83.89-42.12-121.7-39.13-26.99-92.96-30.81-121.17-30.73-28.21-.08-82.04,3.74-121.17,30.73-54.82,37.81-42.37,120.04-42.12,121.7l-17.2-35.33s-12.62,7.41-8.38,39.55l-2.82-12.09s-69.09,51.74-81.2,168.27c-8.18,78.59-10.05,147.99-10.41,184.86h-77.68s30.87-152.83,61.75-245.45c30.87-92.62,101.88-125.04,101.88-125.04,3.86-34.73,19.29-26.24,19.29-26.24,16.98-124.27,178.06-111.14,178.06-111.14,0,0,161.08-13.13,178.06,111.14,0,0,15.43-8.49,19.29,26.24,0,0,71.01,32.42,101.88,125.04,30.88,92.62,61.75,245.45,61.75,245.45Z"/>
    <path class="cls-6" d="M668.18,542.95c5.46,20.19-11.02,11.82-11.02,11.82-20.19,10.46-14.46-8.68-14.46-8.68-13.22-11.41,7.64-19.51,7.64-19.51v-88.96l9.52,7.91,1.39,83.86c13.45,3.98,6.92,13.56,6.92,13.56ZM715.66,566.16v-128.55l-9.52,7.91-1.39,123.45c-13.45,3.98-6.92,13.56-6.92,13.56-5.46,20.19,11.02,11.82,11.02,11.82,20.19,10.46,14.46-8.68,14.46-8.68,13.22-11.41-7.64-19.51-7.64-19.51Z"/>
    <path class="cls-3" d="M767.57,315.09c-3.81,85.18-84.57,131.58-84.57,131.58,0,0-80.75-46.4-84.57-131.58-3.81-85.18,84.57-80.46,84.57-80.46,0,0,88.38-4.72,84.57,80.46Z"/>
    <path class="cls-9" d="M662.79,527.97l-1.02-76.27c1.77.38,2.75-.76-.66-7.07-6.66-12.34-28.13-13.82-28.13-13.82,6.2,1.78,11.05,4.56,14.75,7.43l.07,87.17c-3.8,1.34-11.63,5.74-11.29,12.61.22,4.43,2.11,7.08,4.14,9.35-.78,1.96-1.56,8.25,1.85,11.11,2.85,2.39,8.14,1.9,13.4-.97,2.47.92,10.42,2.69,13.67-.44,3.13-3.02,2.29-12.41,1.32-15.16,3.03-7.18-2.9-12.02-8.11-13.93ZM652.97,443.08c2,2.2,3.31,4.13,4.02,5.29l1.65,90.02-2.8,2.39c-.91-.89-1.95-1.97-2.87-3.09v-94.62ZM640.63,536.85c1.97-4.8,6.42-6.73,8.88-7.46v2.41c-1.31.37-2.67,1.42-1.34,4.39,1.46,3.25,3.93,5.39,5.47,6.47l-6.53,5.57c-.51-.32-1.12-.72-1.77-1.2,0-.06.01-.09.01-.09,0,0-.02.03-.04.08-2.88-2.16-6.45-5.86-4.69-10.16ZM645.51,549.59h0s-.01,0-.01,0c0,0,.01,0,.02,0ZM648.62,555.97c-5.85.51-5.16-4.02-4.19-6.86.32.15.62.29.89.4.21,1.23.88,2.18,2.8.97,1.68-1.06,6.23-4.33,10.06-7.56h0s0,0,0,0c4.74-4,8.34-7.93,3.92-7.48h-.01s-.04-3.2-.04-3.2c1.49,1.03,4.92,3.8,4.81,7.54-.15,4.77-9.79,15.44-18.24,16.19ZM666.71,553.45c-1.76,1.96-4.91,1.33-6.85.68,2.28-1.62,4.56-3.67,6.7-6.16.54-.63,1.01-1.26,1.41-1.88.32,2.07.49,5.42-1.27,7.37ZM1051.94,720.43h-22.32s-25.89-191.05-66.07-269.62c-35.16-68.75-72.36-88.96-81.11-92.94-4.07,16.19-13.23,30.15-13.23,30.15,13.43-40.28,3.98-53.11-1.47-56.98-.53,61.33-67.51,90.85-67.51,90.85,0,0,70.82-49.87,51.87-116.71-18.95-66.83-100.31-93.26-169.1-87.78-68.8-5.49-150.15,20.95-169.1,87.78-18.95,66.83,51.87,116.71,51.87,116.71,0,0-66.99-29.52-67.51-90.85-5.45,3.87-14.89,16.7-1.47,56.98,0,0-9.16-13.96-13.23-30.15-8.75,3.98-45.95,24.19-81.11,92.94-40.17,78.56-66.07,269.62-66.07,269.62h-22.32s8.03-34.82,41.07-191.05c29.16-137.91,108.39-180.03,126.58-188.02.59-10.57,5.28-20.44,17.91-26.45,1.74-10.03,5.23-20.78,10.94-32.26,43.13-86.78,172.46-75.61,172.46-75.61,0,0,129.32-11.16,172.46,75.61,5.71,11.49,9.19,22.23,10.94,32.26,12.63,6.01,17.32,15.88,17.91,26.45,18.18,7.99,97.42,50.11,126.58,188.02,33.03,156.23,41.07,191.05,41.07,191.05ZM733.02,430.81s-21.47,1.48-28.13,13.82c-3.4,6.31-2.43,7.45-.66,7.07l-1.02,116.47c-5.21,1.91-11.15,6.75-8.11,13.93-.97,2.76-1.8,12.15,1.32,15.16,3.25,3.13,11.2,1.36,13.67.44,5.26,2.87,10.56,3.36,13.4.97,3.41-2.86,2.64-9.15,1.85-11.11,2.04-2.26,3.92-4.92,4.14-9.35.35-6.87-7.49-11.27-11.29-12.61l.07-127.38c3.7-2.87,8.55-5.65,14.75-7.43ZM709.01,448.38c.71-1.17,2.02-3.09,4.02-5.29v134.82c-.92,1.12-1.96,2.2-2.87,3.09l-2.8-2.39,1.65-130.22ZM699.29,593.65c-1.75-1.95-1.59-5.29-1.27-7.37.41.62.87,1.25,1.41,1.88,2.13,2.49,4.41,4.54,6.7,6.16-1.94.65-5.08,1.28-6.85-.68ZM717.38,596.18c-8.45-.74-18.09-11.42-18.24-16.19-.12-3.74,3.32-6.52,4.81-7.54l-.04,3.21h-.01c-4.42-.46-.82,3.47,3.92,7.47h0s0,0,0,0c3.82,3.23,8.38,6.5,10.06,7.56,1.92,1.21,2.6.25,2.8-.97.27-.11.57-.25.89-.4.98,2.84,1.67,7.37-4.19,6.86ZM720.49,589.79s.01,0,.02,0h-.01s0,0,0,0ZM725.37,577.05c1.76,4.3-1.8,8-4.69,10.16-.02-.05-.04-.08-.04-.08,0,0,0,.04.01.09-.65.48-1.26.89-1.77,1.2l-6.53-5.57c1.53-1.09,4.01-3.22,5.47-6.47,1.33-2.97-.03-4.02-1.34-4.39v-2.41c2.46.72,6.91,2.65,8.88,7.46ZM683,229.29s-92.05-11.38-89.74,83.23,89.74,138.3,89.74,138.3c0,0,87.43-43.69,89.74-138.3,2.31-94.61-89.74-83.23-89.74-83.23ZM683,439.28s-81.66-49.61-80.51-126.92c1.15-77.3,80.51-72.69,80.51-72.69,0,0,79.36-4.62,80.51,72.69s-80.51,126.92-80.51,126.92Z"/>
  </g>
  <g id="Head">
    <path class="cls-7" d="M902.28,271.03c-10.27,24.48-34.64,41.53-68.43,28.78,0,0-21.55,104.9-150.56,105.22h0c-.1,0-.2,0-.3,0-.1,0-.2,0-.3,0h0c-129.01-.33-150.56-105.23-150.56-105.23-33.79,12.75-58.16-4.3-68.43-28.78-7.43-17.74-7.46-39.37,1.7-56.38,17.75-32.95,48.15-12.26,58.85-3.42,2.45,2.02,3.86,3.42,3.86,3.42l23.14-110.06,131.44-10.44v-.05l.3.02.3-.02v.05l131.44,10.44,23.14,110.06s1.41-1.4,3.86-3.42c10.7-8.84,41.1-29.53,58.85,3.42,9.16,17.01,9.13,38.64,1.7,56.38Z"/>
    <path class="cls-10" d="M574.68,114.31s-7.07,57.53,78.64,71.02l-9.34-17.46s49.12,38.25,159.07,23.69c0,0,14.72-35.79-25.75-75.96-40.47-40.17-202.61-1.29-202.61-1.29Z"/>
    <path class="cls-28" d="M879.16,281.35c-14.33,15.35-33.36,6.14-33.36,6.14,0,0,5.73-13.51,0-23.13-5.73-9.62,1.43-14.8,1.43-14.8,0,0,9.13-19.83,31.52-21.84,22.39-2.01,14.74,38.27.41,53.62ZM518.77,249.57s-9.13-19.83-31.52-21.84-14.74,38.27-.41,53.62c14.33,15.35,33.36,6.14,33.36,6.14,0,0-5.73-13.51,0-23.13,5.73-9.62-1.43-14.8-1.43-14.8Z"/>
    <path class="cls-23" d="M749.33,201.59s-31.7,5.68-44.82,20.16c0,0-2.97-19.48,13.62-25.94,0,0,15.35.62,31.2,5.79ZM757.42,218.4c-41.3,0-46.85,33.85-46.85,33.85,47.74-33.86,92.48,1.32,92.48,1.32,0,0-13.97-35.16-45.63-35.16ZM608.58,218.4c-31.66,0-45.63,35.16-45.63,35.16,0,0,44.73-35.18,92.48-1.32,0,0-5.55-33.85-46.85-33.85ZM647.88,195.8s-15.35.62-31.2,5.79c0,0,31.7,5.68,44.82,20.16,0,0,2.97-19.48-13.62-25.94Z"/>
    <path class="cls-14" d="M683,374.51c-101.89-.13-147.22-66-147.22-66,33.14,99.14,140.93,96.76,147.22,96.53,6.28.22,114.08,2.61,147.22-96.53,0,0-45.33,65.87-147.22,66Z"/>
    <path class="cls-24" d="M683.3,291.66c6.32-.18,9.6-3.19,9.6-3.19-1.23-10.06-7.61-24.78-9.6-29.18v-1.29s-.11.23-.3.64c-.19-.41-.3-.64-.3-.64v1.29c-1.99,4.4-8.37,19.12-9.6,29.18,0,0,3.28,3.01,9.6,3.19v.02c.1,0,.2,0,.3,0,.1,0,.19,0,.3,0v-.02Z"/>
    <path class="cls-13" d="M832.63,262.64c1.56,81.3-28.81,98.87-28.81,98.87,27.76-25.2,27.25-65.69,18.24-101.35-9.01-35.66,3.33-35.27-4.96-68.6-8.3-33.33-45.71-77.79-45.71-77.79,0,0-37.16-60.43,9.76-14.64,46.92,45.79,49.92,82.2,51.48,163.51ZM900.58,214.65c-17.75-32.95-48.15-12.26-58.85-3.42l-.91,20.03s15.77-25.15,39.79-19.9c19.22,4.21,22.34,30.4,21.67,59.67,7.43-17.74,7.46-39.37-1.7-56.38ZM465.42,214.65c-9.16,17.01-9.13,38.64-1.7,56.38-.67-29.27,2.45-55.46,21.67-59.67,24.02-5.25,39.79,19.9,39.79,19.9l-.91-20.03c-10.7-8.84-41.1-29.53-58.85,3.42ZM584.85,99.13c-46.92,45.79-49.92,82.2-51.48,163.51s28.81,98.87,28.81,98.87c-27.76-25.2-27.25-65.69-18.24-101.35,9.01-35.66-3.33-35.27,4.96-68.6,8.3-33.33,45.71-77.79,45.71-77.79,0,0,37.16-60.43-9.76-14.64Z"/>
    <path class="cls-4" d="M819.38,97.29s44.54,74.74,12.78,160.71c0,0-4.26-25.56-3.48-49.18.77-23.62-16.66-72.03-16.66-72.03l-7.35,38.34s-47.62,10.89-110.68-5.07c-21.12-5.34-43.98-13.7-67.35-26.5-.81-.44-1.62-.89-2.43-1.34.04.1.34.78.84,1.86,2.27,4.92,8.71,18.22,14.64,24.47,0,0-21.93-3.84-42.73-17.39-11.56-7.53-22.77-18.05-29.68-32.57,0,0-30.28,37.56-31.79,82.1-1.52,44.53-2.68,57.31-2.68,57.31,0,0-27.11-82.48,6.97-149.48h-37.17s7.35-16.65,37.17-25.94c0,0-3.1-21.69,13.94-40.67,0,0,.39,15.88,6.2,22.46,0,0,36.4-53.2,127.02-55.26l-16.65,16.93s32.43-6.53,73.34.09c19.74,3.19,41.45,9.44,62.45,20.97,19.13,10.5,37.67,25.38,53.57,46.32.4.51.78,1.03,1.17,1.55l-41.44,2.32Z"/>
    <path class="cls-25" d="M859.65,93.42c-90.59-62.83-211.01-57.15-211.01-57.15l5.36-6.25c-61.3,7.74-94.93,44.93-94.93,44.93l-7.44-13.39c-4.47,13.1,0,28.87,0,28.87-20.35.75-38.35,10.74-48.95,18.09h-.07s7.35-16.65,37.17-25.94c0,0-3.1-21.69,13.94-40.67,0,0,.39,15.88,6.2,22.46,0,0,36.4-53.2,127.02-55.26l-16.65,16.93s119.86-24.13,189.36,67.38ZM796.66,156.8s-8.7-88.47-93.55-104.42c0,0,67.08,47.86,93.55,104.42Z"/>
    <path class="cls-5" d="M896.46,197.91c-22.78-16.55-39.85-6.03-48.44,2.4,1.08-15.44.41-32.45-3.75-49.48-4.12-16.87-8.78-34.25-18.5-50.33h-1.6l43.64-2.57s-43.96-90.06-188.56-77.41l14.95-13.03s-81.25-11.41-132.53,51.83c0,0-5.7-12.74-5.13-25.03,0,0-19,10.5-21.05,46.35,0,0-31.7,8.32-39.22,32.24,0,0,21.25-1.52,38.68.36-5.94,12.32-10.17,25.1-13.22,37.6-4.16,17.03-4.83,34.04-3.75,49.48-8.59-8.43-25.66-18.95-48.44-2.4-32.91,23.9-19.54,130.47,58.47,107.52,3.11,19.65,12.35,41.72,34.58,62.14,48.54,44.57,120.41,40.12,120.41,40.12,0,0,71.87,4.45,120.41-40.12,22.23-20.42,31.47-42.49,34.58-62.14,78.01,22.95,91.38-83.62,58.47-107.52ZM526.68,288.16c-3.91-3.01-9.15-9.4-4.95-20.42,6.27-16.43-.7-25.04-12.7-37.03-11.99-11.99-29.27-12.7-36.67,0,0,0,19.04-7.05,34.91,14.11,15.87,21.16.71,20.1,5.29,34.2,3.09,9.51,10.01,12.61,14.21,13.62.07,1.92.2,3.89.38,5.88-12.81,2.35-45.92,5.01-58.32-26.55-15.52-39.5-1.06-64.54,19.4-69.12,13.79-3.09,25.65,8.24,31.92,15.96,2.88,17.71,7.45,31.79,10.09,39.02-1.6,7.42-3.55,17.99-3.56,30.33ZM683,399.76c-101.49,0-157.06-70.33-146.16-136.21,10.89-65.87-9.91-46.56,18.32-113.42,3.88-9.19,8.1-17.35,12.63-24.61,10.87,20.8,33.7,46.03,80.63,47.31l-19.21-24.89c1.47,1.32,57.95,51.31,176.17,32.76,0,0,4.96-10.39,7.76-25.06,24.77,60.32,5.44,43.92,16.02,107.91,10.9,65.88-44.67,136.21-146.16,136.21ZM825.7,161.52c-2.89-8.97-6.31-18.3-10.74-27.49h-.01c-.33-11.16-2.89-22.96-9.57-33.78,0,0,2.13,8.63,2.82,21.34,0,0,0,0,.01.02,0,.12.01.24.02.36.04.92.08,1.86.11,2.81.06,1.86.09,3.8.07,5.79,0,.37,0,.73,0,1.1-.01.59-.02,1.18-.04,1.78-.01.29-.02.59-.03.88-.03.76-.06,1.53-.1,2.31-.05.83-.1,1.67-.16,2.51-.1,1.3-.21,2.62-.35,3.95v.02c-.95,9.01-2.96,18.62-6.72,27.96,0,0-116.29,22.73-181-38.04,0,0-1.31,15.74,9.62,29.3,0,0-33.98-4.41-58.96-41.24-.08-.11-.16-.22-.22-.33-.26-.37-.51-.75-.76-1.13-.94-1.43-1.87-2.9-2.78-4.43-.41-.7-.82-1.4-1.23-2.12-.31-.55-.62-1.11-.93-1.67-2.26-4.11-4.4-8.55-6.39-13.35,0,0,.89,6.69,4.38,16.08-10.8,15.1-17.41,31.78-22.43,47.37-13.04,40.47-6.48,67.87-8.13,85.92-3.66-19.16-9.57-61.77.14-102.43,2.49-10.44,5.82-20.77,10.28-30.66,1.45-3.21,3.02-6.38,4.72-9.48-2.07-.16-4.73-.33-7.74-.49-9.56-.48-22.62-.7-31.43.86,0,0,11.28-11.96,34.18-20.51,0,0,.69-27.69,9.57-37.6,0,0-.34,13.69,7.87,23.25,0,0,30.42-49.92,118.27-57.78l-18.8,16.75s125.8-21.19,193.83,60.85l-33.34,3.38-7.46.76,4.21,6.62c8.15,13.75,13.57,28.79,17.22,44.05,9.71,40.66,3.8,83.27.14,102.43-1.65-18.05,4.91-45.45-8.13-85.92ZM838.85,298.52c.18-1.99.31-3.96.38-5.88,4.2-1.01,11.12-4.11,14.21-13.62,4.58-14.1-10.58-13.04,5.29-34.2,15.87-21.16,34.91-14.11,34.91-14.11-7.4-12.7-24.68-11.99-36.67,0-12,11.99-18.97,20.6-12.7,37.03,4.2,11.02-1.04,17.41-4.95,20.42-.01-12.34-1.96-22.91-3.56-30.33,2.64-7.23,7.21-21.31,10.09-39.02,6.27-7.72,18.13-19.05,31.92-15.96,20.46,4.58,34.92,29.62,19.4,69.12-12.4,31.56-45.51,28.9-58.32,26.55Z"/>
    <path d="M575.78,169.32c4.26-4.71,9.47-8.93,15.84-12,28.3-13.66,49.03-13,55.28-11.68,6.25,1.32,3.95,12.5,3.95,12.5l4.28-6.58c.17,6.69-1.45,12.54-3.09,16.66-1.45,3.66-5.42,5.63-9.22,4.65-26.24-6.76-47.08-3.16-62.29,3.14-4.11,1.7-7.73-3.39-4.74-6.69ZM588.65,227.13s9.03-1.51,21.5.51c-25.06,3.63-47.49,25.92-47.49,25.92,41.61-27.06,92.48-1.32,92.48-1.32,0,0-15.15-44.96-66.48-25.11ZM617.35,313.1s2.93,8.52,26.2,18.19c16.06,6.67,39.45,4.19,39.45,4.19,0,0,23.39,2.49,39.45-4.19,23.26-9.66,26.2-18.19,26.2-18.19,0,0-25.92,19.53-65.65,19.53s-65.65-19.53-65.65-19.53ZM713.96,168.22c1.45,3.66,5.42,5.63,9.22,4.65,26.24-6.76,47.08-3.16,62.29,3.14,4.11,1.7,7.73-3.39,4.74-6.69-4.26-4.71-9.47-8.93-15.84-12-28.3-13.66-49.03-13-55.28-11.68-6.25,1.32-3.95,12.5-3.95,12.5l-4.28-6.58c-.17,6.69,1.45,12.54,3.09,16.66ZM755.85,227.64c12.47-2.01,21.5-.51,21.5-.51-51.33-19.85-66.48,25.11-66.48,25.11,0,0,50.87-25.75,92.48,1.32,0,0-22.43-22.29-47.49-25.92Z"/>
  </g>
  <g id="Elbow">
    <g>
      <path class="cls-27" d="M299.21,360.55s-81.9,48.94-110.57,101.93c-28.67,52.99-27.36,64.93-12.97,92.08,14.4,27.15,34.87,75.26,63.01,88.27,28.13,13.01,95.41,2.12,115.8-8.5,20.39-10.62,72.58-50.58,69.08-131.45-3.51-80.87-124.36-142.31-124.36-142.31Z"/>
      <path class="cls-2" d="M207.48,604.12s-7.4-28.26,26.79-17.62c0,0-21.08-31.53-2.14-60.07,18.94-28.54,37.31-41.74,66.36-82.53,29.05-40.79,111.59-30.59,92.52,45.15-19.07,75.75,9.25,121.33-60.52,149.72-69.77,28.39-101.21-7.41-101.21-7.41l-21.8-27.24Z"/>
      <path class="cls-13" d="M277.38,380.38s-46.55,19.28-82.02,78.56-31.46,72.02-13.51,104.25c0,0-13.48-39.67,19.46-75.6,32.94-35.93,40.49-17.55,79.97-80.55,39.47-63-3.9-26.66-3.9-26.66Z"/>
      <path class="cls-17" d="M263.99,395.95s-40.37,19.42-69.45,71.76-27.95,59.89,1.87,110.35c29.82,50.46,50.87,69.15,97.09,63.32,46.22-5.84,117.3-15.71,118.31-137.48l9.45-3.08s11.07,45.01-16.52,97.91c-27.59,52.9-71.67,51.22-103.92,58.56s-66.07,12.78-100.41-46.06c-34.34-58.84-51.4-84.5-33.02-122.69s56.7-92.9,97.34-109.14l-.74,16.56Z"/>
      <path class="cls-27" d="M1066.79,360.55s81.9,48.94,110.57,101.93c28.67,52.99,27.36,64.93,12.97,92.08-14.4,27.15-34.87,75.26-63.01,88.27-28.13,13.01-95.41,2.12-115.8-8.5-20.39-10.62-72.58-50.58-69.08-131.45,3.51-80.87,124.36-142.31,124.36-142.31Z"/>
      <path class="cls-1" d="M1158.52,604.12s7.4-28.26-26.79-17.62c0,0,21.08-31.53,2.14-60.07-18.94-28.54-37.31-41.74-66.36-82.53-29.05-40.79-111.59-30.59-92.52,45.15,19.07,75.75-9.25,121.33,60.52,149.72,69.77,28.39,101.21-7.41,101.21-7.41l21.8-27.24Z"/>
      <path class="cls-13" d="M1088.62,380.38s46.55,19.28,82.02,78.56c35.47,59.28,31.46,72.02,13.51,104.25,0,0,13.48-39.67-19.46-75.6-32.94-35.93-40.49-17.55-79.97-80.55-39.47-63,3.9-26.66,3.9-26.66Z"/>
      <path class="cls-31" d="M1102.01,395.95s40.37,19.42,69.45,71.76c29.08,52.34,27.95,59.89-1.87,110.35-29.82,50.46-50.87,69.15-97.09,63.32-46.22-5.84-122.71-16.1-117.3-168.49l-12.94-6.31s-8.6,79.25,18.99,132.15c27.59,52.9,71.67,51.22,103.92,58.56,32.25,7.34,66.07,12.78,100.41-46.06,34.34-58.84,51.4-84.5,33.02-122.69-18.38-38.19-56.7-92.9-97.34-109.14l.74,16.56Z"/>
    </g>
  </g>
  <g id="HandPen">
    <path class="cls-16" d="M403.96,268.18c-72.31-39.27-90.87-95.55-158.34-76-67.47,19.55-54.39,49.84-54.39,49.84,0,0-41.8,40.78-54.39,98.19s-9.4,89.45-8.95,105.54c.45,16.08,61.73,62.15,70.91,74.16,9.18,12.01,31.3,16.67,88.62-12.14,0,0,59.39,7.54,78.67-16.89,0,0,85.5,28.85,91.39-9.43s79.34-9.61,79.34-62.22c0,0-18.59-11.3-19.28-70.5s-66.78-57.14-84.68-61.27-28.91-19.28-28.91-19.28Z"/>
    <path class="cls-21" d="M249.72,453c-27.98-16.06-23.83-38.88-23.83-38.88,6.74,17.89,41.97,38.88,41.97,38.88-15.54-8.51,7.15-35.06,7.15-35.06l17.2-7.43c17.2-7.43,93.55,44.73,61.94,15.19s-80.25-66.58-80.25-66.58c57.85,31.81,116.24,82.18,116.24,82.18,0-28.5,43.52-41.44,43.52-41.44,0,0-.52-29.55-41.45-61.15s-94.82-27.46-100-55.44-27.89-91.71-27.89-91.71c0,0,106.64,63.73,134.11,97.93,27.46,34.2,59.42,31.84,59.42,31.84-24,19.92,33,90.25,50.95,96.14,17.95,5.89,26.94,18.65,15.92,28.27s-72.2,4.6-70.32,37.95-94.29,7.18-94.29,7.18c-9.84,22.1-72.66,20.26-72.66,20.26,0,0-36.16,12.56-65.17,15.15s-66.32-51.56-66.32-51.56c0,0,69.98,47.54,48.19,21.72-21.8-25.82-35.45-55.42-35.45-55.42,79.57,62.92,109.03,28.05,81.05,11.99ZM356.3,414.12l8.88-27.28,13.7-22.82c13.7-22.82-29.99-32.91-60.02-36.39-30.03-3.47-25.53,25.07-37.55,36.39-2.27,2.13,74.99,50.1,74.99,50.1Z"/>
    <path class="cls-22" d="M241.91,69.52s-30.51.62-35.49,27.39l131.37,203.59s49.9,10.5,90.21,77.2c3.77,6.24,15.01,26.24-10.51,57.95l55.41,84.24,78.45,45.22-16.19-80.32L241.91,69.52Z"/>
    <path class="cls-34" d="M533.08,481.86L237.45,70.55c-.32-.45-.92-.62-1.41-.37-5.52,2.77-18.83,14.66-24.76,20.38-.81.78-.11,2.13,1,1.93.09-.02.18-.04.26-.08l19.04-8.55c2.81-1.26,6.12-.28,7.79,2.3l261.64,404.71,32.06-9.01Z"/>
    <path class="cls-26" d="M510.39,488.04l-23.69,13.08-39.42-60.17c8.23-15.31,12.88-41.73-11.34-80.94-41.86-67.77-92.56-60.52-92.56-60.52,0,0,87.42,55.02,90.38,90.19,2.96,35.17-18.48,43.14-18.48,43.14l62.22,89.62,71.11,41.38-38.21-75.79Z"/>
    <path class="cls-20" d="M433.76,386.51l-4,36.58s22.68,44.46,34.69,32.11c12.02-12.34-30.69-68.69-30.69-68.69Z"/>
    <path class="cls-13" d="M521.17,376.22c-11.69-20.26-27.47-10.13-38.95-32.04-4.2-8.01-5.7-14.56-5.92-19.64-.19-4.53-3.41-8.35-7.8-9.48s-10.52-2.98-18.3-5.66c-45.43-15.61-56.14-39.71-56.14-39.71,0,0,68.15,21.63,98,35.33,29.85,13.69,29.11,71.2,29.11,71.2ZM218.22,201.71c-19.24,11.05-26.61,37.66-57.72,81.05-31.11,43.39-25.79,67.95-29.88,122.68s15.15,66.85,15.15,66.85c-12.28-30.29,13.51-54.23,13.51-54.23,38.89,28.46,26.67-52.35,26.67-52.35,27.9,22.37,47.83,3.82,35.96-25.51-11.87-29.34-8.31-64.5-8.31-64.5,0,0,29.74,57.86,50.72,41.62,20.97-16.24,1.39-39.88-16.21-82.46-17.6-42.57,20.64-40.62,20.64-40.62-18.25-10.74-31.28-3.59-50.52,7.46ZM415.28,401.24c7.94-4.19-.95-14.88-9.53-23.15s-11.44-7.95-26.87,2.22c-15.43,10.17-23.67,29.46-23.67,29.46l26.26,20.44c5.28-14.94,25.87-24.79,33.81-28.98ZM451.84,485.21c1.91,11.76-14.94,18.75-25.43,17.16s-24.16-10.49-20.02-17.48c4.13-6.99,11.31-15.92,10.81-27.52s12.56-5.85,12.56-5.85c0,0,20.18,21.93,22.09,33.69ZM533.08,409.78s-21.8-7.53-28-8.03-21.3-5.64-14.14-25.53c7.15-19.9,28.29,4.74,28.29,4.74l13.85,28.82Z"/>
    <g>
      <path class="cls-18" d="M561.48,559.54l-19.85-75.92-20.7-29.36c21.49-6.34,19.09-27.28,19.09-27.28,0,0,9.1.18-4.98-23.44s-5.9-21.35-15.44-66.77c-9.54-45.42-32.7-44.06-68.87-53.14-36.17-9.08-81.59-44.68-81.59-44.68h0s0,.01,0,.01h-.01s-120.16-170.46-120.16-170.46c-3.25-4.61-8.9-6.85-14.4-5.72-16.19,3.34-26.53,14.64-31.25,21.08-1.83,2.5-2.76,5.43-2.76,8.37,0,2.6.73,5.2,2.18,7.52l52.45,83.62c-14.39,2.08-44.5,8.68-58.78,28.53-6.84,9.51-9.2,18-9.42,25-7.52,8.89-22.08,26.9-36.85,49.65-21.26,32.74-26.79,61.01-25.94,97.91.85,36.9-6.36,67.16.11,78.21s58.71,58.51,82.1,72.55c19.51,11.7,72.47-11.05,90.59-18.95,14.22.31,34.6-.86,41.03-.65,13.37.42,25.43-10.3,31.11-16.34,18.04,5.95,31.24,6.52,57.74,7.77,15.34.72,22.79-3.25,26.32-7.93l16.71,26.65.79,1.25,72.56,45.86c2,1.26,4.25,1.89,6.48,1.89,2.51,0,5.02-.79,7.15-2.36,4.05-2.95,5.84-8,4.57-12.85ZM521.17,401.75c-4.49-2.52-10.16-4.28-17.25-4.38-3.6-.05-6.72-2.46-7.66-5.93-2.1-7.8-3.88-20.19,6.09-20.17,4.79,0,8.84,2.88,12.13,6.71,1.64,9.59,4.11,17.49,6.69,23.77ZM454.66,300.89c38.15,4.54,56.77,13.17,57.88,56.77.15,5.79.61,11.15,1.29,16.1-8.38-7-21.62-15.51-25.56-3.39-5.9,18.17,4.09,29.52,7.72,32.25,3.49,2.62,22.05,1.88,34.78,16.3.96,1.24,1.55,1.86,1.55,1.86,0,16.98-9.6,22.92-17.4,24.95l-61.65-87.45-.3-.42c-.12-.17-.22-.32-.35-.5-11.53-16.36,5.21-36.03,5.21-36.03-12,3.86-16.23,11.65-17.35,18.82h0s-46.42-65.85-46.42-65.85c13.65,9.86,36.55,23.73,60.6,26.6ZM348.34,480.89c-23.08-13.28-75.47-27.44-88.66-38.16-13.19-10.72-66.36-68.42-66.36-68.42,0,0,4.25,7.32,10.99,17.61-.96-.35-2.06.19-3.28,1.01l.06.03c3.99,2.19,7.41,5.28,10,9.03,14.45,20.91,35.15,47.12,52.07,53.93,29.27,11.77,58.4,23.41,84.37,34.95,2.38,1.06,4.69,2.04,6.97,2.96-2.97,3.21-7.89,6.95-15.71,9.21-15.8,4.56-93.28,3.04-108.17-10.33-14.89-13.37-65.63-58.94-65.63-58.94,8.81,21.88,47.7,56.82,63.2,68.67,6.89,5.27,24.94,7.89,44.55,9.24-3.58,1.86-38.15,19.08-64.74,5.78-28.07-14.03-34.44-32.32-57.83-48.05s-15.31-50.34-12.33-71.52c2.98-21.18-5.53-44.15,10.63-78.59,13.6-28.99,34.73-59.49,41.08-68.42,1.7,4.06,3.61,6.32,3.61,6.32,1.13-47.63,50.92-58.84,69.85-61.39l63.95,101.97c-3.54.03-7.06.33-10.55.92,0,0,5.51,1.49,14.23,4.95,5.95,2.36,13.4,5.64,21.62,10,12.92,6.84,27.74,16.35,41.62,29.1,9.67,8.89,17.4,17.52,23.08,25.81,4.46,6.47,7.65,12.72,9.56,18.72,2.7,8.52,2.79,16.52.13,23.85-1.13,3.1-2.75,6.09-4.88,8.95-.49.66-1,1.3-1.54,1.94-1.12,1.33-2.35,2.62-3.69,3.88-2.17,2.04-4.18,3.72-6.05,5.07-11.03,7.99-17.17,4.66-23.89-1.24,1.71-4.07,8.23-15.35,30.39-25.98,4.52-2.17,6.93-7.18,5.25-11-2.07-4.72-9.2-14.68-20.67-23.02-2.35-1.7-5.58-2.19-8.86-1.34-10.42,2.69-30.97,14.3-37.88,37.86-22.72-15.22-57.47-38.36-84.62-54.44-9.54-5.65-55.88-75.01-56.6-76.1.15.42,3.97,10.64,10.73,24.5-1.06-.18-2.33.39-3.7,1.27,4.11,2.51,7.39,6.15,9.68,10.38,11.98,22.2,29.75,48.6,51.24,60.59,40.6,22.66,78.83,45.67,89.99,60.22,11.16,14.54,33.15,18.55,45.67,9.03l4.61,7.35c-2.44-.13-5.03.43-5.98,3.09-1.97,5.54,1.35,14.63-7.96,25.71-7.47,8.9-6.03,13.65,1.46,17.59-20.48-1.75-46.18-6.01-61.01-14.54ZM382.2,425.71c-2.57-2.36-5.36-4.8-8.63-6.95-2.17-1.43-5-3.32-8.36-5.56-3.3-2.21-4.53-6.46-2.95-10.11,3.33-7.71,11.36-20.14,30.09-28.3,2.87-1.25,5.94-.96,7.94.72,4.58,3.85,10.58,10.8,14.46,17.02,1.39,2.24-.08,5.57-3.02,6.81-8.46,3.56-24.1,13.29-29.54,26.37ZM435.94,496.32c-2.51.13-5.99.16-10.15.05-4.45-.12-8.84-1.26-12.66-3.53-2.11-1.25-3.74-2.6-4.14-3.91-1.33-4.43,4.88-5.32,8.42-18.84,3.3-12.58.85-17.62,6.92-17.04l22.85,36.43c-2.05,3.55-5.48,6.53-11.24,6.84ZM426.63,432.24c.57-.71,1.13-1.46,1.69-2.23l16.67,25.29c2.98,4.51,7.93,6.96,12.97,6.96,2.93,0,5.9-.82,8.52-2.55,7.14-4.71,9.12-14.35,4.41-21.49l-32.76-49.67c-1.7-9.23-6.01-19.31-14.15-29.98-23.83-31.25-52.31-53-80.6-59.07L213.77,92.84c-.25-.4-.23-.9.05-1.29,3.61-4.93,11.46-13.58,23.38-16.03.44-.1.89.09,1.15.47l286.35,406.17c-19.61,1.79-32.41,10.57-40.04,18.26-3.68,3.71-6.48,7.46-8.55,10.71l-49.48-78.89ZM446.82,418.06l16.56,25.11c1.97,3,1.14,7.05-1.86,9.02-2.99,1.98-7.04,1.15-9.02-1.85l-16.56-25.11,10.88-7.17ZM436.45,414.12c.9-2.74,1.6-5.64,2.04-8.68l3.37,5.11-5.41,3.57ZM529.75,548.93l-47.7-30.15c4.98-8.99,18.64-27.11,48.04-27.91l12.93,49.44c-6.9.82-10.97,4.95-13.27,8.62Z"/>
      <path class="cls-18" d="M297,327.63c-21.51,4.51-19.07,25.15-19.07,25.15,3.01-13.9,19.07-25.15,19.07-25.15Z"/>
      <path class="cls-18" d="M264.4,435.66c3.01-13.9,19.07-25.15,19.07-25.15-21.51,4.51-19.07,25.15-19.07,25.15Z"/>
    </g>
  </g>
  <g id="Hand">
    <path class="cls-27" d="M1040.3,303.4s-90.41-17.57-120.5,88.59h24.4s30.78-22.52,43.17-32.28,52.93-56.31,52.93-56.31Z"/>
    <path class="cls-16" d="M1358.81,418.4c-4.37-10.92-26.77-11.71-55.47-9.94-1.99-5.29-6.08-10.57-9.01-14.91-7.8-11.53-23.66-59.83-59.22-63.44-35.57-3.6-107.22,17.04-107.22,17.04,0,0,3.15-7.29,8.7-16.16,5.21-8.31,12.53-18,21.35-24.39,2.33-1.69,4.77-3.15,7.31-4.29,0,0,32.62,10.87,64.07-2.36,3.55-1.48,7.08-3.28,10.55-5.44,3.85-2.38,7.62-5.21,11.24-8.54,2.04-1.88,3.88-3.71,5.53-5.5h0c27.21-29.54,1.55-45.98-9.89-46.89-12.13-.97-91.34,2.59-112.06,0-20.73-2.6-37.9,12.9-60.16,41.23-22.26,28.33-59.16,55.33-79.56,78.1-20.39,22.78-52.87,39.07-52.87,39.07-47.55,5.08-48.28,1.55-81.02,24-23.82,16.33-45.32,22-54.9,38.06-3.6,6.02-5.51,13.5-5.25,23.55.55,20.74,23.04,29.5,47.45,27.51,18.99-1.55,39.14-9.62,51.03-23.63,0,0,44.63-5.82,72.28,13.1,27.65,18.92,68.61,19.89,68.61,19.89,0,0,2.55,2.41,6.74,5.91,2.85,2.39,6.47,5.27,10.55,8.25,0,.01,0,.01,0,.01,8.3,6.03,18.55,12.42,28.37,15.67,3.73,1.24,7.4,2.03,10.88,2.17,15.46.64,37.29-2.22,59.88-10.18,9.5-3.34,19.14-7.59,28.49-12.87h.01c2.58-1.45,5.14-2.99,7.67-4.6,0,0,27.26,5.02,43.18,27.74,0,0,5.55,28.75,25.22,33.39,19.67,4.64,30.56-4.85,29.11-12.13-1.46-7.28-16.01-47.06-19.89-59.18-3.88-12.13-8.73-24.26-29.59-38.81,0,0,76.16,4.85,89.26-1.46,13.1-6.31,38.32-25.71,28.62-49.97ZM1191.44,412.58s8.46-9.67,31.89-9.2c0,0,2.86,4.69,8.31,10.23-14.31.57-28.08.46-40.2-1.03Z"/>
    <path class="cls-13" d="M1134.33,245.63c-23.24-.58-39.5,24.98-54.61,42.4-15.1,17.43-49.95,61-80.16,80.43-25.37,16.31-11.41,21.81-6.29,23.15-19.29-3.92-36.85,8.63-62.84,11.75-26.72,3.22-30.79,8.41-46.47,10.76-15.69,2.35-15.11,10.43-40.67,25.23-25.56,14.8-16.85,33.42-27.3,35.37-10.46,1.95-15.69-3.7-8.74-17.35l-1.07-3.33c9.58-16.06,31.08-21.73,54.9-38.06,32.74-22.45,33.47-18.92,81.02-24,0,0,32.48-16.29,52.87-39.07,20.4-22.77,57.3-49.77,79.56-78.1,22.26-28.33,39.43-43.83,60.16-41.23,20.72,2.59,99.93-.97,112.06,0,11.44.91,37.1,17.35,9.89,46.88,24.8-45.51-99.07-34.25-122.31-34.83ZM994.8,391.96c-.49-.13-.98-.24-1.47-.33.71.19,1.24.29,1.47.33ZM1211.54,330.39c-44.75,6.04-61.07,10.94-61.07,10.94,0,0,77.1.82,86.07,2.86,8.97,2.04,21.21,16.76,28.15,42.85,6.93,26.09,4.82,21.2,16.32,20.38,11.49-.82,26.66,16.78,20.4,27.33-6.26,10.55,18.77,3.25-4.69-37.74s-40.42-72.65-85.18-66.61ZM1360.55,424.54c-1.89-14.84-6.01-17.17-53.59-14.3v11.85s61.34-13.05,47.47,30.19c0,0,8.01-12.9,6.12-27.74ZM1238.99,470.95l-23.66,1.32s28.96,8.97,37.53,27.74c8.57,18.76,41.89,85.47,15.86,78.32,0,0,10.66,9.79,21.67-8.16,0,0-13.87-39.98-16.73-54.25-2.86-14.28-10.61-33.63-34.67-44.96Z"/>
    <path class="cls-29" d="M1343.33,441.55c-10.06-17.67-60.98,6.59-94.66,3.18-31.69-3.21-65.8-14.74-69.72-16.09-1.44-3.36-3.08-6.62-4.88-9.77,20.47-14.2,49.25-15.5,49.25-15.5l-7.24-29.07s-9.28-5.19-35.89-3.24c-26.61,1.95-54.76-16.68-54.76-16.68l-6.66,5.71c2.76-8.47,9.92-19.11,17.82-29.12,7.52-9.51,15.69-18.45,21.35-24.39,4.32-4.53,7.17-7.33,7.17-7.33,0,0,37.33,10.55,64.21.68,3.76-1.38,7.32-3.17,10.55-5.44,1.87-1.32,3.63-2.8,5.25-4.46,24.33-24.97-34.56-23.05-80.65-24.33-46.09-1.28-26.07,17.64-26.07,17.64,0,0-26.42,23.97-56.57,51.19-30.14,27.23-33.38,76.51-33.38,76.51-44.97-26.85-70.89,14.69-108.02,19.67-37.13,4.97-28.17,28.31-36.49,23.19-8.32-5.12-5.12-17.93-43.53,0-35.23,16.44-29.52,46.35-12.03,51.18,18.99-1.55,39.14-9.62,51.03-23.63,0,0,44.63-5.82,72.28,13.1,27.65,18.92,68.61,19.89,68.61,19.89,0,0,2.55,2.41,6.74,5.91l4.13-.47c1.89,3.2,4.03,6.11,6.42,8.72,0,.01,0,.01,0,.01,7.21,7.88,16.7,13.12,28.37,15.67,18.33,4.02,42.05,1.4,70.76-8.01.44-.14.89-.29,1.34-.44,13.36-4.45,21.9-8.31,27.15-12.43h.01c1.55-1.22,2.8-2.46,3.82-3.74.29.01.58.03.88.03,25.64,0,46.15,26.86,46.15,26.86,0,0,1.88,24.09,23.62,29.68,21.74,5.59,5.19-3.97-2.6-27.01s-14.6-29.86-14.6-29.86c-8.02-22.11-36.59-37.12-50.44-43.27,32.84-7.38,77.26-7.65,111.85-5.15,43.88,3.18,49.47-11.73,39.41-29.4Z"/>
    <path class="cls-11" d="M1228.72,413.93c-6.42-13.97-3.64-31.33,6.03-17.31s19.59,23.93,33.97,23.69,42.5,8.51,21.67,20.33c-20.83,11.82-54.17-10.37-61.67-26.71Z"/>
    <path class="cls-33" d="M1200.61,306.35c-32.26-3.69-69.96-26.99-26.59-40.7,43.37-13.71,93.42.31,74.07,22.99-19.35,22.69-47.48,17.7-47.48,17.7Z"/>
    <path class="cls-18" d="M1330.74,404.59c-11.89.85-21.6.61-27.04.33-4.2-8.58-9.86-19.3-16.4-33.14-19.14-40.51-46.63-45.02-46.63-45.02-45.04-5.03-87.53,7.55-105.88,14.12,9.22-12.53,21.42-26.84,33.71-34.66,10.42,4.24,23.47,6.78,39.53,5.46,54.58-4.51,67.21-46.91,62.7-65.86-4.51-18.94-35.06-24.6-77.91-22.34-42.85,2.26-57.29-3.61-76.68,3.61-19.4,7.22-37.89,26.61-55.48,48.71-6.05,7.6-12.94,14.45-20.37,21.34-19.94-1.69-103.95-.66-125.03,91.26-10.54.3-19.57.8-23.82,1.65-14.11,2.82-26.8,19.28-56.9,33.86-30.09,14.58-51.73,33.63-34.8,63.25,16.93,29.62,54.32,26.54,79.71,16.51,9.93-3.92,15.67-10.2,19-16.4,6.56-2.13,18.76-4.76,36.21-3.06,27.4,2.66,49.49,28.16,88.69,30.42,0,0,22.39,2.62,32.11,17.22,9.72,14.61,64.45,39.95,139.84-8.15,0,0,24.39,1.21,37.77,28.21l.04-.08c.28,3.57,1.24,7.56,3.37,11.82,7.95,15.9,31.51,26.48,51.83,18.97,20.32-7.51-9.59-53.04-13.56-74.69-3.62-19.72-4.06-23.65-25.81-34.21,16.7-.08,34.78.07,49.98.77,40.64,1.88,63.62-12.92,65.38-42.08,1.77-29.16-15.02-29.16-33.58-27.83ZM1284.98,386.5c3.26,6.35,6.49,11.95,9.34,16.88-6.41-3.97-13.64-3.99-13.64-3.99-4.38-3.71-8.58-13.57-4.26-15.39,2.33-.98,5.82.72,8.56,2.5ZM1228.63,334.64c27.02-1.66,41.35,21.7,54.27,47.71-9.63-5.53-13.71.6-11.33,9.16,2.71,9.74,9.11,12.65,9.11,12.65,12.06-.62,17.74,6.66,19.84,10.38,3.92,7.84,5,13.3.19,17.15-9.57,7.65-25.2,13.4-50.71-1.28-25.52-14.67-33.5-62.51-33.5-62.51-.72,8.72-1.22,19.23,2.46,31.36-19.1-.19-36.6,8.74-44.76,13.66-12.09-20.39-29.74-36.09-43.17-44.38-3.59-2.22-7-4.54-10.2-6.87,1.11-1.82,2.67-4.32,4.6-7.27,45.6-19.84,76.77-18.13,103.2-19.75ZM1222.02,407.44c.41.93.84,1.86,1.31,2.8-5.82-1-15.12-.63-22.71-.04,9.61-2.87,17.57-2.97,21.4-2.77ZM1031.14,309.11c-6.1,5.52-12.42,11.29-18.81,17.67-6.57.22-18.98,2.07-30.73,11.65,0,0,12.68-4.95,26.21-7.04-4.07,4.25-8.16,8.77-12.23,13.67-14.1,17.02-32.42,30.12-45.09,38,3.34-20,21.05-35.66,21.05-35.66-18.35,10.69-24.79,30.08-26.87,39.16-1.08.63-2.08,1.2-3,1.71-4.72.02-9.59.07-14.35.15,3.9-15.7,25.76-85.69,103.82-79.32ZM1342.23,456.72c-14.14,8.39-28.27,11.93-68.03,8.84-39.76-3.09-77.27,9.1-77.27,9.1,0,0,17.94-.59,40.84-.84,7.03,4.18,18.16,11.46,21.41,17.36,4.86,8.84,13.42,43.29,21.51,60.97,8.09,17.67,1.46,30.92-22.84,20.32-24.3-10.6-19.44-36.23-19.44-36.23,0,0-1.24,1.85-2.29,5.04-5.13-7.96-20.04-27.24-44.22-27.28,0,0-29.95,22.02-68.82,26.49-37.61,4.32-57.03-4.64-73.24-26.87,17.37-4.03,18.89-13.2,18.89-13.2,0,0-6.28,7.16-32.73,8.37-33.94,1.56-68.13-25.5-97.06-31.97-18.73-4.19-30.8-1.85-36.99.32.94-4.87.69-8.33.69-8.33-6.11,24.45-60.19,46.55-84.64,22.58-24.45-23.97-3.29-48.91,24.92-60.67,28.21-11.76,32.45-31.03,68.65-32.45,36.21-1.41,63.48-9.87,63.48-9.87,0,0-9.37-.13-21.84-.15,33.17-15.48,58.31-46.09,72.15-60.34,14.89-15.34,39.24-32.93,63.15-62.7,23.91-29.77,31.57-27.51,51.42-28.42,19.85-.9,61.34-1.35,91.11.9,29.77,2.26,37.44,12.18,28.42,31.12-9.02,18.94-35.18,37.44-67.66,33.38s-58.19-26.16-58.19-26.16c0,0,6.92,13.98,23.8,24.52-8.56,7.94-31.13,30.38-42.85,56.3-13.66-10.95-22.1-20.95-22.1-20.95,3.43,16.67,20.62,30.77,49.05,52.34s46.53,74.62,46.53,74.62c.5-14.97-3.26-28.99-9.33-41.56,1.09-.82,2.18-1.6,3.27-2.32,19.8-.72,37.59-.34,46.32-.05,2.55,3.91,5.6,7.95,9.25,12.11,22.96,26.15,60.03,18.01,70.24,6.53,5.28-5.94,4.72-12.52.31-23.1,13.85-.29,25.77-4.17,39.42-.98,15.46,3.62,8.84,34.81-5.3,43.21ZM1074.35,483.67s9.38-72.77-59.51-86.67c0,0,76.97,7.76,59.51,86.67Z"/>
  </g>
  <g id="Tablet">
    <ellipse class="cls-19" cx="683" cy="756.31" rx="824.41" ry="124.15"/>
    <path class="cls-8" d="M1307.54,662.49l-190.09,70.24H248.55l-190.09-70.24s284.03-105.73,624.54-105.73,624.54,105.73,624.54,105.73Z"/>
    <path class="cls-35" d="M1142.62,692.99l-85.38-13.57-53.44,43.87-63.33-95.57-40.48,67.76c-58.49-11.26-134.22-18.05-216.97-18.05s-158.51,6.8-217,18.06l-40.49-67.77-63.33,95.57-53.44-43.87-85.38,13.57-101.77-30.5,101.77,38.24,28.82,32h112.51s70.68,0,70.68,0l4.03,5.78,49.99-3.86-1.15-1.92h389.47l-1.15,1.92,49.99,3.86,4.03-5.78h70.68s112.51,0,112.51,0l28.82-32,101.77-38.24-101.77,30.5ZM367.78,727.43l29.01-50,20.65,29.58c-20.9,6.13-37.75,13.01-49.66,20.42ZM948.57,707l20.64-29.58,28.99,49.97c-11.91-7.4-28.75-14.27-49.63-20.39Z"/>
    <path class="cls-22" d="M41.85,611.17l16.08,51.32s260.9-105.73,624.54-105.73,622.52,105.73,622.52,105.73l19.17-50.08s-233.09-115-641.15-115S41.85,611.17,41.85,611.17Z"/>
    <path class="cls-22" d="M229.82,686.54l67.72-17.92-34.15,82.35-56.54-4.06,22.97-60.37ZM1022.32,732.73l-54.19-116.38h-16.22l-8.11,8.11,37.55,110.09-297.8-1.81h0s-.56,0-.56,0h-.56s0,0,0,0l-297.8,1.81,37.55-110.09-8.11-8.11h-16.21l-54.19,116.38-12.64,2.24-5.28,21.34h714.49l-5.28-21.34-12.64-2.24ZM1136.18,686.54l-67.72-17.92,34.15,82.35,56.54-4.06-22.97-60.37Z"/>
    <path class="cls-12" d="M297.55,667.81l7.81,11.41-25.72,68.47s-16.18,3.92-16.24,3.29c-.06-.63,34.15-83.17,34.15-83.17ZM364.71,738.51l20.53-9.6,34.51-100.13-3.38-12.42-51.66,122.16ZM1068.45,667.81l-7.81,11.41,25.72,68.47s16.18,3.92,16.24,3.29c.06-.63-34.15-83.17-34.15-83.17ZM946.25,628.77l34.51,100.13,20.53,9.6-51.66-122.16-3.38,12.42Z"/>
    <path class="cls-30" d="M215.87,568.19c26.1-6.81,61.93-14.45,102.88-21.89-73.79,15.71-148.35,36.86-217.22,64.06l-4.92,21.19-2.72-18.25c-2.88,1.13-5.49,2.19-7.86,3.17l-4.21,21.8-2.89-18.79c-6.99,3.05-10.32,4.79-10.32,4.79l-1.2,22.56-8.15-26.76c21.01-9.01,75.15-30.61,156.59-51.87ZM218.55,741.13l68.32-61.01-51.35,15.25-16.97,45.76ZM1150.13,568.19c-26.1-6.81-61.93-14.45-102.88-21.89,73.79,15.71,148.35,36.86,217.22,64.06l4.92,21.19,2.72-18.25c2.88,1.13,5.49,2.19,7.86,3.17l4.21,21.8,2.89-18.79c6.99,3.05,10.32,4.79,10.32,4.79l1.2,22.56,8.15-26.76c-21.01-9.01-75.15-30.61-156.59-51.87ZM1079.14,680.12l68.32,61.01-16.97-45.76-51.35-15.25ZM1016.61,741.13l-51.81-114.31,46.22,114.31H354.98l46.22-114.31-51.81,114.31h-8.57l-3.73,3.86h691.82l-3.73-3.86h-8.57Z"/>
    <path class="cls-35" d="M1330.96,609.16l-5.01-2.42c-.6-.29-61.23-29.28-170.3-57.79-100.47-26.26-264.03-57.56-472.65-57.56s-372.18,31.3-472.65,57.56c-109.07,28.51-169.7,57.5-170.3,57.79l-5.01,2.42,18.23,59.89,156.91,54.07-12.09,30.33,66.26,3.53,16.65-6.82,4.37-11.15h36.37c-4.37,8.11-2.72,16.36-.38,20.78l1.69,3.19h719.9l1.69-3.19c2.34-4.41,3.99-12.66-.38-20.78h36.37l4.37,11.15,16.65,6.82,66.26-3.53-12.09-30.33,156.91-54.07,18.23-59.89ZM276.46,746.19l-8.41.73,24.73-67.21-31,67.15-50.38-2.66,20.18-52.8,63.4-17.74,4.66,10.22-23.17,62.3ZM1034.92,750.98H331.08c-.35-3.17.57-8,7.3-12.47h8.81l52.23-115.23,12.12-1.17-46.85,116.4,49.76-112.82v6.28l-37.49,96.4-12.27,10.14h636.62l-12.27-10.14-37.49-96.4v-6.28l49.76,112.82-46.85-116.4,12.12,1.17,52.23,115.23h8.81c6.73,4.47,7.65,9.3,7.3,12.47ZM1104.22,746.86l-31-67.15,24.73,67.21-8.41-.73-23.17-62.3,4.66-10.22,63.4,17.74,20.18,52.8-50.38,2.66ZM1151.01,711.03l-11.1-27.85-76.03-20.48-6.62,16.74,18.27,46.59h-49.21l-51.67-114.01-30.01-3.07c-1.29,5.72-2.78,12.46-4.15,18.79l36.34,98.79H389.17l36.34-98.79c-1.37-6.33-2.86-13.07-4.15-18.79l-30.01,3.07-51.67,114.01h-49.21l18.27-46.59-6.62-16.74-76.03,20.48-11.1,27.85-136.54-47.05c73.96-28.79,289.48-100.26,604.55-100.26s530.6,71.46,604.55,100.26l-136.54,47.05ZM1093.5,593.38c-129.28-28.31-267.39-42.66-410.5-42.66s-281.23,14.35-410.5,42.66c-103.98,22.77-175.5,48.9-209.57,62.78l-12.18-40.03c16.52-7.36,73.11-31.17,163.33-54.73,99.66-26.01,261.9-57.02,468.92-57.02s369.26,31.01,468.92,57.02c90.23,23.55,146.81,47.36,163.33,54.73l-12.18,40.03c-34.07-13.88-105.59-40.01-209.57-62.78Z"/>
  </g>
</svg>