<?xml version="1.0" encoding="UTF-8"?>
<svg id="Layer_2" data-name="Layer 2" xmlns="http://www.w3.org/2000/svg" viewBox="0 0 85.3 81.89">
  <defs>
    <style>
      .cls-1 {
        fill: #ffa600;
      }
    </style>
  </defs>
  <g id="Layer_1-2" data-name="Layer 1">
    <path class="cls-1" d="M63.23,74.31h0c-3.43,0-5.6-2.31-6.41-3.19-1.09-1.17-2.16-2.51-3.09-3.7l-.66-.83c-6.36-7.97-17.15-23.16-17.86-35.42-.87-15.01,10.18-28.01,24.9-29.72-2.03-.93-4.28-1.46-6.65-1.46H16.04C7.18,0,0,7.18,0,16.04v49.81c0,8.86,7.18,16.04,16.04,16.04h37.41c6.43,0,11.96-3.79,14.52-9.26-1.14.85-2.72,1.67-4.74,1.67Z"/>
    <path d="M64.42,7.31h-2.38c-12.23.73-21.56,11.24-20.84,23.52.59,10.2,10.27,24.15,16.56,32.02,1.07,1.34,2.28,2.93,3.44,4.18,1.66,1.77,2.49,1.68,4.11-.06,1.14-1.23,2.33-2.79,3.39-4.11,6.29-7.87,15.97-21.82,16.56-32.02.72-12.38-8.6-22.71-20.84-23.52ZM72.37,35.68c-4.42,6.42-13.96,6.37-18.34-.07-4.83-7.1-.02-16.72,8.46-17.32,9.19-.64,15.13,9.75,9.88,17.39Z"/>
  </g>
</svg>