<?xml version="1.0" encoding="UTF-8"?>
<svg id="Layer_2" data-name="Layer 2" xmlns="http://www.w3.org/2000/svg" viewBox="0 0 85.25 81.89">
  <defs>
    <style>
      .cls-1 {
        fill: #fff;
      }

      .cls-2 {
        fill: #ffa600;
      }
    </style>
  </defs>
  <g id="Layer_1-2" data-name="Layer 1">
    <path class="cls-2" d="M43.21,5.67l.1-.17c1.39-2.34,3.5-4.23,5.95-5.46v-.03S11.12,0,11.12,0C4.98,0,0,4.98,0,11.12v59.64c0,6.14,4.98,11.12,11.12,11.12h36.67l-21.99-10.98c-6.92-3.46-9.71-11.89-6.2-18.8L43.21,5.67Z"/>
    <path d="M80.26,15.89l-20.11-10.21c-4.49-2.28-9.97-.49-12.25,3.99l-22.43,44.13c-2.29,4.51-.47,10.02,4.05,12.28l20.19,10.08c4.48,2.24,9.93.44,12.19-4.03l22.34-44c2.28-4.49.49-9.97-4-12.25ZM50.3,13.43l29.51,14.99-17.73,34.91-29.51-14.99L50.3,13.43Z"/>
    <circle class="cls-1" cx="43.8" cy="62.84" r="3.83"/>
  </g>
</svg>