<?xml version="1.0" encoding="UTF-8"?>
<svg id="Layer_2" data-name="Layer 2" xmlns="http://www.w3.org/2000/svg" viewBox="0 0 656.92 407.91">
  <g id="Layer_1-2" data-name="Layer 1">
    <path id="Behance" d="M594.45,66.04h-168.08V15.87h168.08v50.17ZM655.81,272.38h-211.1c0,75.68,71.7,70.88,71.7,70.88,67.71,0,65.32-43.8,65.32-43.8h71.69c0,116.3-139.4,108.33-139.4,108.33-167.29,0-156.54-155.73-156.54-155.73,0,0-.14-156.54,156.54-156.54,164.89,0,141.79,176.85,141.79,176.85ZM515.61,155.2c-62.94,0-71.69,62.79-71.69,62.79h133.83s.79-62.79-62.14-62.79ZM341.42,287.16c0,124.34-129.42,120.25-129.42,120.25H0V0h212c64.43,0,115.29,35.58,115.29,108.48s-62.17,77.51-62.17,77.51c81.94,0,76.3,101.16,76.3,101.16ZM93.41,163.33h111.24c19.22,0,36.17-6.15,36.17-48.53s-28.82-42.39-28.82-42.39h-118.59v90.92ZM254.95,282.07c0-56.51-42.95-55.95-42.95-55.95h-118.59v108.87h112.6c16.86-.36,48.94-5.27,48.94-52.92Z"/>
  </g>
</svg>