<?xml version="1.0" encoding="UTF-8"?>
<svg id="Layer_2" data-name="Layer 2" xmlns="http://www.w3.org/2000/svg" viewBox="0 0 367.77 334.65">
  <defs>
    <style>
      .cls-1 {
        fill: #fff;
      }

      .cls-2 {
        fill: #d88a23;
      }
    </style>
  </defs>
  <g id="Layer_3" data-name="Layer 3">
    <g id="Logo">
      <path id="outline" class="cls-1" d="M163.22,334.65c-5.43,0-10.7-.32-15.69-.94-68.59-8.51-96.55-50.83-101.46-59.22l-.02-.03c-2.1-3.48-3.37-7.43-3.66-11.46-.09-.85-.18-2.1-.26-5.09-.24-.17-.49-.34-.72-.52-3.97-2.85-7.65-6.18-10.91-9.87-12.66-14.31-18.59-33.4-16.28-52.35l6.23-51.18h22c-20.69-22.03-31.76-49.07-33.1-52.48L0,67.89l38.41-16-4.23-43.33,25.19-2.98C90.79,1.87,121.61,0,150.96,0c83.91,0,130.29,14.99,135.31,16.7l8.74,3,4.87,7.8c5.6,9.01,8.85,20.7,9.71,34.82,19.44,5.4,28.87,13.58,31.49,16.19l7.84,7.76-.21,11.08c-.27,16.61-3.86,34.17-7.46,47.8,11.85,8.4,20.31,20.52,24.16,34.83,4.13,15.3,2.82,32.17-3.67,47.5-11.05,26.07-34.49,42.26-61.18,42.26-.97,0-1.94-.02-2.92-.06-12.55,18.97-32.53,35.2-58.18,47.18-24.56,11.48-51.64,17.8-76.24,17.8Z"/>
      <path id="logo" class="cls-2" d="M84.66,213.64c-3.25-3.4-5.29-8.35-5.29-13.87,0-10.26,7.09-18.57,15.84-18.57,3.09,0,5.98,1.04,8.41,2.84l-7.09,10.06,13.18-1.79c.85,2.28,1.33,4.81,1.33,7.46,0,8.28-4.62,15.28-10.98,17.69-1.54.57-3.16.88-4.85.88-4.05,0-7.74-1.77-10.55-4.7ZM235.96,195.79c1.75,14.4-2.76,28.89-12.38,39.77-9.62,10.86-23.46,17.09-37.97,17.09s-28.36-6.23-37.98-17.09c-5.1-5.77-8.76-12.55-10.81-19.8-1.83-6.41-2.39-13.21-1.56-19.97l1.22-10.06,3.21-26.27h91.84l3.17,26.04,1.26,10.29ZM224.27,197.21l-3.17-25.97h-70.98l-3.18,25.97c-1.35,11.06,2.12,22.2,9.51,30.54,7.39,8.34,18.02,13.12,29.16,13.12s21.76-4.78,29.16-13.12c7.38-8.34,10.85-19.48,9.5-30.54ZM192.27,191.74l7.78-11.05c-2.67-1.97-5.84-3.11-9.24-3.11-9.6,0-17.38,9.12-17.38,20.38s7.78,20.38,17.38,20.38,17.39-9.12,17.39-20.38c0-2.92-.53-5.69-1.46-8.19l-14.47,1.97ZM293.22,208.11c-.32.69-.63,1.42-.91,2.15-1.68,4.22-2.94,8.97-3.64,14.34,5.57,1.19,11.03-2.38,12.2-7.96,1.74-8.32,6.72-20.31,20.38-32.07h0c.93-.8,1.89-1.59,2.89-2.38-1.21.2-2.55.52-3.98.98-8.53,2.7-20.28,10.11-26.94,24.94ZM352.53,223.57c-9.46,22.31-29.38,36.16-51.97,36.16h-.01c-2.68,0-5.41-.19-8.17-.58-11.03,19.36-31.02,36.43-57.15,48.64-23.26,10.87-48.83,16.86-72.01,16.86-5.02,0-9.88-.29-14.45-.86-63.94-7.93-89.58-46.67-94.07-54.35l-.04-.07c-1.34-2.18-2.15-4.69-2.31-7.27-.1-.86-.23-2.65-.31-9.73-1.64-.95-3.23-1.97-4.76-3.08-3.4-2.44-6.52-5.26-9.28-8.39-10.77-12.18-15.82-28.4-13.85-44.52l5.16-42.39h26.75c.73-2.82,1.57-5.63,2.51-8.41-25.49-21.67-39.3-56.17-39.92-57.74l-5.74-14.5,36.17-15.07-4-40.94,15.46-1.83c31.03-3.65,61.44-5.5,90.42-5.5,82.13,0,127.21,14.5,132.08,16.16l5.37,1.84,2.99,4.79c6.65,10.71,8.43,25.08,8.42,37.44,22.47,4.68,32.3,13.46,34.21,15.36l4.81,4.76-.13,6.8c-.3,18.56-5.05,38.64-9.11,52.53,13.05,6.96,22.29,18.55,26.15,32.89,3.55,13.17,2.4,27.73-3.22,41ZM62.6,175.77h-14l-2.83,23.24c-1.22,9.95,1.89,19.96,8.54,27.46,2.25,2.54,4.83,4.69,7.65,6.46,0-12.59.09-29.17.36-50.71.02-2.16.12-4.32.28-6.45ZM73.74,237.59c2.22.45,4.49.68,6.79.68,10.02,0,19.57-4.3,26.21-11.8,6.65-7.5,9.76-17.51,8.54-27.46l-2.83-23.24h-38.06c-.17,2.18-.27,4.38-.3,6.59-.3,24.22-.38,42.2-.35,55.23ZM317.98,168.19c-8.2-3.9-15.48-3.89-21.66.03-6.26,3.99-10.97,11.84-12.98,21-1.32,6.03-6.67,10.33-12.84,10.33-.02-2.44.12-4.87.4-7.25-12.69-1.05-22.24-5.94-28.44-14.56-11.27-15.66-7.76-41.49-4.53-54.74-29.94,4.55-49.67-6.16-68.82-16.54-3.32-1.84-6.32-3.45-9.08-4.84-19.1-9.71-43.34-5.75-57.98,9.89-.11.12-.23.24-.34.37-7.03,7.57-12.77,15.55-17.22,23.91-4.13,7.75-6.29,17.57-8.05,26.2-.21,1.03.57,2,1.63,2h44.82l4.09,33.6c1.62,13.29-2.55,26.66-11.42,36.69-8.87,10.02-21.64,15.77-35.03,15.77-2.27,0-4.52-.18-6.74-.5.04,5.01.1,6.6.15,7.56.07,1.32.54,2.59,1.34,3.64,6.4,8.45,28.38,35.5,76.18,41.43,45.26,5.62,112.49-22.6,126.41-63.54l1.95-5.74,5.68,2.12c24.56,9.16,40.65-5.03,46.98-19.95,7-16.51,4.27-37.92-14.5-46.88Z"/>
    </g>
  </g>
</svg>