<?xml version="1.0" encoding="UTF-8"?>
<svg id="Layer_2" data-name="Layer 2" xmlns="http://www.w3.org/2000/svg" viewBox="0 0 467 467.01">
  <defs>
    <style>
      .cls-1 {
        fill-rule: evenodd;
      }
    </style>
  </defs>
  <g id="Layer_1-2" data-name="Layer 1">
    <path id="Instagram" class="cls-1" d="M362.22,0H104.78C46.91,0,0,46.92,0,104.79v257.43c0,57.87,46.91,104.79,104.78,104.79h257.44c57.87,0,104.78-46.92,104.78-104.79V104.79c0-57.87-46.91-104.79-104.78-104.79ZM233.5,372.81c-76.93,0-139.3-62.37-139.3-139.3s62.37-139.3,139.3-139.3,139.3,62.36,139.3,139.3-62.37,139.3-139.3,139.3ZM415.34,92.31c0,12.6-10.21,22.81-22.81,22.81h-23.46c-12.6,0-22.81-10.21-22.81-22.81v-23.45c0-12.6,10.21-22.81,22.81-22.81h23.46c12.6,0,22.81,10.21,22.81,22.81v23.45Z"/>
  </g>
</svg>