<?xml version="1.0" encoding="UTF-8"?>
<svg id="Layer_2" data-name="Layer 2" xmlns="http://www.w3.org/2000/svg" viewBox="0 0 442.99 423.43">
  <g id="Layer_1-2" data-name="Layer 1">
    <path id="Linkedin" d="M100.56,423.43V137.73H5.61v285.7h94.95ZM53.1,98.74c33.1,0,53.72-21.96,53.72-49.37C106.19,21.34,86.2,0,53.72,0,21.23,0,0,21.34,0,49.36s20.61,49.37,52.47,49.37h.63ZM153.12,423.43s1.25-258.89,0-285.7h94.97v41.43h-.63c12.49-19.5,34.98-48.14,86.2-48.14,62.49,0,109.33,40.83,109.33,128.59v163.82h-94.95v-152.84c0-38.4-13.74-64.61-48.11-64.61-26.23,0-41.86,17.67-48.72,34.75-2.51,6.08-3.12,14.62-3.12,23.16v159.55h-94.97Z"/>
  </g>
</svg>