<svg width="50" height="50" viewBox="0 0 50 50" fill="none" xmlns="http://www.w3.org/2000/svg">
<g id="Rays">
<path d="M28.4269 42.5175C29.2305 42.5175 29.7187 43.4022 29.2905 44.0822L25.864 49.5231C25.4635 50.159 24.5364 50.159 24.1359 49.5231L20.7094 44.0822C20.2815 43.4022 20.7705 42.5175 21.574 42.5175H28.4269Z" fill="white"/>
<path d="M8.47255 35.459C8.65077 34.6756 9.62258 34.3952 10.1908 34.9634L15.0362 39.81C15.6045 40.3783 15.3243 41.3492 14.5406 41.5272L8.27011 42.9513C7.53743 43.1174 6.88222 42.4624 7.04852 41.7297L8.47255 35.459Z" fill="white"/>
<path d="M39.8101 34.9634C40.3783 34.3955 41.3491 34.6758 41.5274 35.459L42.9514 41.7297C43.1178 42.4625 42.4627 43.1177 41.7298 42.9513L35.4593 41.5272C34.6761 41.349 34.3959 40.3782 34.9637 39.81L39.8101 34.9634Z" fill="white"/>
<path d="M5.91767 20.7099C6.59768 20.2816 7.4833 20.7699 7.48331 21.5735V28.4265C7.48331 29.2301 6.59765 29.7192 5.91767 29.2911L0.476849 25.8646C-0.159017 25.4641 -0.158882 24.537 0.476849 24.1364L5.91767 20.7099Z" fill="white"/>
<path d="M42.5176 21.5735C42.5176 20.7699 43.4032 20.2806 44.0832 20.7089L49.523 24.1364C50.159 24.5369 50.159 25.4631 49.523 25.8636L44.0832 29.2911C43.4032 29.7194 42.5176 29.2302 42.5176 28.4265V21.5735Z" fill="white"/>
<path d="M7.04852 8.27035C6.88208 7.53754 7.53731 6.88147 8.27011 7.04774L14.5406 8.47179C15.3242 8.64988 15.6044 9.62181 15.0362 10.19L10.1898 15.0366C9.62142 15.6043 8.65049 15.3235 8.47255 14.54L7.04852 8.27035Z" fill="white"/>
<path d="M41.7298 7.04874C42.4626 6.88249 43.1178 7.53755 42.9514 8.27035L41.5274 14.54C41.3494 15.3237 40.3774 15.6049 39.8091 15.0366L34.9637 10.19C34.3955 9.6218 34.6757 8.65086 35.4593 8.47279L41.7298 7.04874Z" fill="white"/>
<path d="M24.1359 0.47694C24.5364 -0.15898 25.4635 -0.15898 25.864 0.47694L29.2905 5.91687C29.7187 6.59679 29.2303 7.48229 28.4269 7.48253H21.573C20.7695 7.4824 20.2811 6.59684 20.7094 5.91687L24.1359 0.47694Z" fill="white"/>
</g>
<path id="Side" fill-rule="evenodd" clip-rule="evenodd" d="M25 0C38.8071 0 50 11.1929 50 25C50 38.8071 38.8071 50 25 50C11.1929 50 0 38.8071 0 25C0 11.1929 11.1929 0 25 0ZM25 8C15.6112 8 8 15.6112 8 25C8 34.3888 15.6112 42 25 42C34.3888 42 42 34.3888 42 25C42 15.6112 34.3888 8 25 8Z" fill="white"/>
<circle id="Core" cx="25" cy="25" r="14" fill="white"/>
</g>
</svg>
